<svg id="Layer_1" data-name="Layer 1" xmlns="http://www.w3.org/2000/svg" viewBox="0 0 240 240"><defs><style>.cls-1{fill:#0e3a54;}.cls-2{fill:#d89084;}.cls-3{fill:#3e6277;}.cls-4{fill:#e8bdb6;}.cls-5{fill:#54180e;}.cls-6{fill:#113c56;}.cls-7{fill:#906962;}.cls-8{fill:#267bae;}.cls-9{fill:#e3afa6;}.cls-10{fill:#a13c2b;}.cls-11{fill:#78b2d4;}.cls-12{fill:#be786d;}.cls-13{fill:#c17e73;}.cls-14{fill:#d48578;}</style></defs><path class="cls-1" d="M1380,1380h240v240H1380Zm145.22,95.76v0a14.33,14.33,0,0,0-2.16-5,13.36,13.36,0,0,1,.56-4.61c.67-2.42,1.67-4.74,2.19-7.21a5.56,5.56,0,0,0-3.12-6.67,14.73,14.73,0,0,0-2.54-1c-3.83-1.1-5-3.86-4.71-7.43a13.69,13.69,0,0,0-.07-3.2,10.27,10.27,0,0,0-10.12-8.5,9.7,9.7,0,0,0-8.68,5.45c-.42.82-.79,1.06-1.73.83a6.52,6.52,0,0,0-3,.11c-5,1.23-8.69,7-7.49,12,.81,3.45-.09,6-3,8.09-3.29,2.31-3.91,5-2.24,8.52-.06,1-.62,1.92-.73,2.95-.14,1.36.46,2.52.77,3.75l-2.78,8.5c-.17-.4-.28-.65-.38-.9-1.92-4.65-3.81-9.32-5.77-14a1.62,1.62,0,0,1,.3-2.08,65.07,65.07,0,0,0,7.11-9.18,14.2,14.2,0,0,0,2.12-4.67,1.92,1.92,0,0,0-.8-2.31,2,2,0,0,0-2.41.46,10.3,10.3,0,0,0-2.23,3.09,61.92,61.92,0,0,0-4.29,11.55c-.11.4-.25.78-.39,1.21a1.84,1.84,0,0,1-.66-1c-1.61-3.43-3.19-6.88-4.83-10.3a1.26,1.26,0,0,1,.23-1.66,67.35,67.35,0,0,0,7.62-10,12.18,12.18,0,0,0,1.75-4.17,1.82,1.82,0,0,0-3-1.84,8.22,8.22,0,0,0-2.09,2.6,54.75,54.75,0,0,0-4.37,11.25l-.71,2.41c-.22-.35-.34-.5-.43-.67q-2.67-5.43-5.63-10.71a11.14,11.14,0,0,1-1-2.55,53.25,53.25,0,0,0-4.26-11.81,6.59,6.59,0,0,0-2.36-2.81,1.7,1.7,0,0,0-2.67,1.53,6.34,6.34,0,0,0,.69,2.77A42.45,42.45,0,0,0,1454,1438c3.61,4.41,5.86,9.58,8.39,14.6l-.13.13a96.12,96.12,0,0,0-9.35-5.36,14.21,14.21,0,0,0-5.58-1.66,2,2,0,0,0-2.19,1.29c-.34,1,.27,1.7,1,2.24a13,13,0,0,0,3.64,1.78,67.92,67.92,0,0,0,12.29,2.62c.52.07,1,.08,1.28.68,1.7,3.66,3.57,7.24,5,11l-.16.16c-2.87-1.71-5.65-3.6-8.68-5a17.07,17.07,0,0,0-6.09-2c-1-.07-2,.08-2.39,1.18a2,2,0,0,0,1,2.36,12.32,12.32,0,0,0,3.64,1.78,68.73,68.73,0,0,0,12.38,2.64c.49.06.93.09,1.16.64,2.24,5.16,4.48,10.31,6.38,15.6l-.15.16c-.35-.21-.69-.4-1-.62a60.66,60.66,0,0,0-10.49-5.74,9.47,9.47,0,0,0-4.06-.9,1.84,1.84,0,0,0-1.82,1.12,1.8,1.8,0,0,0,.64,2.14,9.72,9.72,0,0,0,3.34,1.82,17.68,17.68,0,0,0,2.33,11.37,1.49,1.49,0,0,1,.07.57c-1.16,1.08-1.18,1.93,0,3a6.63,6.63,0,0,0,1.79,1.16,31.17,31.17,0,0,0,6.67,2.11,20.35,20.35,0,0,0,.54,5.5c0,1.87.31,3.73.16,5.61a7.7,7.7,0,0,0-2.57-.24,1.9,1.9,0,0,0-1.59,1.25,1.7,1.7,0,0,0,.53,1.82,8.91,8.91,0,0,0,.8.7c.11.5-.25.81-.48,1.17a19.45,19.45,0,0,0-2.79,6.56c-.21,1.07-.3,2.16-.47,3.38-1-.89-1.94-1.73-2.92-2.45a1.26,1.26,0,0,1-.48-1.68,28.85,28.85,0,0,0,1.37-12c-.18-1.35-.46-1.59-1.6-1.24a7.34,7.34,0,0,0-1.77-2.38c-1.23-1.13-2.65-2.11-4.41-1.32s-2.06,2.31-2.11,4c0,.33.17.71-.19,1-.54-.43-1-.89-1.59-1.28a11.55,11.55,0,0,0-5.23-2.49,2.42,2.42,0,0,0-2.92,2.89,12.43,12.43,0,0,0,1.81,4.77,3.88,3.88,0,0,1,.67,1.33c-.33.27-.66.17-1,.19-2.73.23-4,2.38-2.79,4.86a9.37,9.37,0,0,0,4.08,4.09c-.79.82-.48,1.31.48,1.6a6,6,0,0,0,.92.25,24.6,24.6,0,0,0,10-.46c2.13-.57,3.73-.5,5.28,1.22a54.49,54.49,0,0,1,4.36,4.71,1.66,1.66,0,0,1-.35.07c-.2,0-.39-.09-.58-.13a17.42,17.42,0,0,0-11.93,1.81c-.78.41-1.81.88-1.61,2s1.3,1.15,2.18,1.37a34.52,34.52,0,0,0,3.54,7,7.31,7.31,0,0,1-2.64,1.93c-2.07-1-4.14-2-6.23-3a1.73,1.73,0,0,1-1.06-1.3c-.48-2.14-1-4.27-1.63-6.37-.82-2.74-1.59-5.53-3.29-7.91-.43-.62-1-1.27-1.87-.86s-.8,1.19-.67,2a18.66,18.66,0,0,0,2.2,5.53c1.41,2.69,3.13,5.18,4.75,7.75l-.28.23-8.28-3.73c.75-.86,1.92-1.25,2.71-2.29a14.74,14.74,0,0,0-7.26-1.3l-.24-1a50.64,50.64,0,0,0-3.47-10.56,6.17,6.17,0,0,0-1.36-2,1.19,1.19,0,0,0-2.12.92,8.36,8.36,0,0,0,.19,1.42,19.91,19.91,0,0,0,1.62,4c1.25,2.51,2.82,4.82,4.26,7.21a7.1,7.1,0,0,1-2.29.29c-2.76-1.07-5.5-2.18-8.29-3.17a2.17,2.17,0,0,1-1.55-1.82,58,58,0,0,0-3.66-11.77,7.21,7.21,0,0,0-1.5-2.29,1.27,1.27,0,0,0-1.39-.46,1.31,1.31,0,0,0-.81,1.34,6.65,6.65,0,0,0,.53,2.45,56.53,56.53,0,0,0,5.82,10.45c.22.34.63.62.53,1.18a3.38,3.38,0,0,1-1.38-.34c-2.46-.83-4.9-1.71-7.39-2.48a1.79,1.79,0,0,1-1.39-1.52,59.26,59.26,0,0,0-3.75-12,7.05,7.05,0,0,0-1.5-2.29,1.26,1.26,0,0,0-1.42-.39,1.28,1.28,0,0,0-.72,1.28,7.83,7.83,0,0,0,.84,3.35,60,60,0,0,0,5.54,9.65c.26.41.53.81.92,1.4l-2-.57c-4.92-1.37-9.87-2.61-14.32-5.28a21.92,21.92,0,0,0-3.88-1.58,7.28,7.28,0,0,0-2.58-.52c-.75,0-1.47.14-1.75,1a1.69,1.69,0,0,0,.64,1.91,6.41,6.41,0,0,0,2.1,1.14,28.66,28.66,0,0,0,4.19,1c3,.57,6.15.28,9.14,1.2,2.6.79,5.23,1.47,7.85,2.2a2.87,2.87,0,0,1-1.23.68,30.6,30.6,0,0,0-8.13,3.74,5.21,5.21,0,0,0-1.49,1.54,1.79,1.79,0,0,0,.09,2.13,1.62,1.62,0,0,0,1.84.5,6.47,6.47,0,0,0,2.16-1,25.16,25.16,0,0,0,5.93-5.38,3.17,3.17,0,0,1,4.33-1.11c2.31,1,4.73,1.64,7.39,2.53l-1.51.55a36.38,36.38,0,0,0-7.26,3.12,6.75,6.75,0,0,0-2.48,2.21,1.77,1.77,0,0,0,.08,2.13,1.59,1.59,0,0,0,1.84.51,7.23,7.23,0,0,0,2.55-1.29,39.7,39.7,0,0,0,6.54-6.15,1.49,1.49,0,0,1,2-.45c2.52,1,5.08,2,7.61,2.92-1.08.91-2.58,1-3.7,1.84-.6.47-1.36.9-1.23,1.74s.86,1.09,1.61,1.21l-1.47,1a6.33,6.33,0,0,0-2.08,1.94,1.78,1.78,0,0,0,0,2.13,1.56,1.56,0,0,0,1.93.51,7.2,7.2,0,0,0,1.22-.48,22.22,22.22,0,0,0,5.57-4.65c1.65-.44,3.41-.49,5-1.26a3.22,3.22,0,0,1,1.56-.46c2.47,1.1,4.94,2.17,7.39,3.3a4.39,4.39,0,0,1,1.93,1.1c-.88.25-1.77.46-2.63.76a26.88,26.88,0,0,0-8,3.9c-1.33,1.06-1.69,2.24-1.08,3.2s1.66,1.06,3.22.15a33.85,33.85,0,0,0,8.53-7.79s0-.15,0-.23a49,49,0,0,1,7.13,3.3,53.33,53.33,0,0,1-10.12,5.84,9.86,9.86,0,0,1-6.47,1,17.2,17.2,0,0,0-2.84-.18c-.35.47.2.7.1,1.14a14.07,14.07,0,0,0-4,.85c-.36.15-.85.17-.72.75s.53.53,1,.52h1a17.64,17.64,0,0,1-2.4,1.64c-.35.22-.84.42-.67,1s.66.49,1.09.53a6.33,6.33,0,0,0-1.91,3.38,10.16,10.16,0,0,0,2.12,7.75c2.38,2.93,5.67,4.33,9.16,5.33a45.6,45.6,0,0,0,10.13,1.59,73.5,73.5,0,0,0,15.76-.48c4.48-.71,8.89-1.84,13.4-2.46.08.38-.1.81.21,1.12a1.23,1.23,0,0,0,.83-.11,16,16,0,0,1,7.36-.46c4.77.67,9.5,1.64,14.26,2.41,3.9.63,7.72.46,11.17-1.81l3.42.63c8.28,1.65,16.61,2.78,25.09,2a36.39,36.39,0,0,0,14.78-4.09c5.19-2.9,8.89-7,10-13,.51-2.93-.29-4.89-2.77-6.45a15.79,15.79,0,0,0-8-2.32c-.31-1.62-1.52-2.46-2.84-3.18a32.94,32.94,0,0,0-6.56-2.56c-2-.57-4-1.08-6.14-1.67.54-.27.87-.47,1.22-.62,3.52-1.53,7.09-2.94,10.52-4.62a3.37,3.37,0,0,1,4.29.63,41.41,41.41,0,0,0,8.72,5.87c1.5.74,3,1.31,4.7.55a6.51,6.51,0,0,0,3.34.55c1.14,0,2.61.16,3-1.13s-.93-2.08-1.9-2.72a19.58,19.58,0,0,0-8.77-3.26,4,4,0,0,0-2.89.25c-2.56-.2-4.89-1.27-7.38-1.81,4.6-2,9.24-3.7,13.9-5.37.64-.23,1,.11,1.37.43a57.86,57.86,0,0,0,9.47,6.51,8.33,8.33,0,0,0,3.39,1.11,1.6,1.6,0,0,0,1.63-.79,1.62,1.62,0,0,0-.28-1.89,7.34,7.34,0,0,0-2.49-1.85,41,41,0,0,0-8-2.91c-1.19-.33-2.39-.64-3.59-1,3.28-1.27,6.56-2.29,9.81-3.38a1.81,1.81,0,0,1,1.94.4,58.33,58.33,0,0,0,8.31,5.89,11.74,11.74,0,0,0,4,1.61,1.67,1.67,0,0,0,1.5-3,11.41,11.41,0,0,0-3.78-2.28,59.29,59.29,0,0,0-9-2.85c-.29-.07-.64,0-.72-.45,1-.31,2.07-.63,3.12-.9,4-1,7.88-2.35,12-2.5a35.44,35.44,0,0,0,7.92-1.25,8.2,8.2,0,0,0,3.35-1.54,1.55,1.55,0,0,0-.7-2.75,5.86,5.86,0,0,0-2.73.12,35.66,35.66,0,0,0-8.33,3.31,23.13,23.13,0,0,1-6.3,2.54c-1.17.21-2.32.59-3.48.9l-5.76,1.6a75.7,75.7,0,0,0,4.66-8.52,16.22,16.22,0,0,0,1.6-5.25c.08-1-.1-1.91-1.16-2.27s-1.71.4-2.21,1.2a14.57,14.57,0,0,0-1.64,4.36,55.31,55.31,0,0,0-1.46,9.22,1.71,1.71,0,0,1-1.44,1.84c-1.55.38-3,.94-4.57,1.43l-5.47,1.79a2,2,0,0,1,.54-1.27,62.34,62.34,0,0,0,4.39-8.52,11.57,11.57,0,0,0,1-4c0-.93-.16-1.79-1.18-2.12s-1.63.4-2.13,1.14a11.14,11.14,0,0,0-1.39,3.3,50.65,50.65,0,0,0-1.72,9.91,2.37,2.37,0,0,1-1.9,2.54c-2.1.6-4.14,1.46-6.19,2.24s-4.14,1.59-6.53,2.52c2.42-4.2,4.8-8,6-12.43a3.92,3.92,0,0,0,1.33-3.55c-.36-2.13-2.27-2.49-4-3.06a17.07,17.07,0,0,0,3.4-5.58c.75-2.54-.38-4-3-3.88a12.68,12.68,0,0,0-5.36,1.89c-.56.3-1,.83-1.79.87,0-.67,0-1.26,0-1.86,0-1.45-.38-2.81-1.76-3.57a3.89,3.89,0,0,0-4.06.42,12.5,12.5,0,0,0-2.84,2.54c-.74-.59-1.25-.34-1.55.47a11,11,0,0,0-.56,1.94,33.28,33.28,0,0,0,.1,11.86c.07.38.15.71-.23,1l-4,2.46c0-.93,0-1.67,0-2.41a17.72,17.72,0,0,0-2.91-9.93c-1.17-1.77-1.79-1.74-3.14-.15,0-.75.18-1.57-.68-2-.12-3.76.39-7.49.5-11.24.85-.21,1.71-.41,2.55-.66a9.67,9.67,0,0,0,3-1.4,1.74,1.74,0,0,0-.89-3.28,4.32,4.32,0,0,0-1.19,0,21.87,21.87,0,0,0-3.48.87c0-.44,0-.88,0-1.31-.22-2.41-.71-4.73-2.72-6.36-.67-.54-1.43-1-2.15-1.46.16-.48.56-.49,1-.52a70.55,70.55,0,0,0,8.2-1,21.88,21.88,0,0,0,7.07-2.15c.9-.52,1.69-1.21,1.3-2.41s-1.36-1.22-2.36-1.18a17.77,17.77,0,0,0-6.06,1.76c-2.88,1.2-5.55,2.83-8.3,4.27l-.12-.12a8.69,8.69,0,0,1,.37-1c2-4.18,4-8.33,6-12.54a2.34,2.34,0,0,1,2.29-1.48,57.25,57.25,0,0,0,10.88-1.67,13.11,13.11,0,0,0,3.44-1.35c.9-.55,1.71-1.23,1.33-2.41s-1.43-1.28-2.47-1.23a10.83,10.83,0,0,0-2.69.56,54.33,54.33,0,0,0-10.18,4.78,2.29,2.29,0,0,1-1.48.57c1.87-3.46,3.69-6.79,5.48-10.14a1.2,1.2,0,0,1,1.14-.66,76.13,76.13,0,0,0,9-1.18,18.75,18.75,0,0,0,6.22-2c.83-.51,1.51-1.16,1.21-2.24s-1.23-1.24-2.2-1.25a12.38,12.38,0,0,0-4.53,1,78.14,78.14,0,0,0-9.45,4.66l-.22-.24c2.67-4.63,5.08-9.42,8.8-13.37a44,44,0,0,0,4.93-6.34,12.67,12.67,0,0,0,1.83-3.88,1.83,1.83,0,0,0-.74-2.21,1.79,1.79,0,0,0-2.2.37,8.78,8.78,0,0,0-2.09,2.6,54.88,54.88,0,0,0-4.4,10.6,7.83,7.83,0,0,1-.85,2c-2.08,3.23-4,6.52-5.94,9.86-.14.23-.16.65-.62.61a68.34,68.34,0,0,0-3.18-11.16,12,12,0,0,0-2.4-4.12,1.87,1.87,0,0,0-2.25-.63,1.81,1.81,0,0,0-.91,2.14,9.08,9.08,0,0,0,.91,2.84,55.06,55.06,0,0,0,7,10.7,1.45,1.45,0,0,1,.16,1.89c-1.73,3.1-3.37,6.26-5,9.39-.16.29-.34.55-.62,1-.11-.45-.18-.67-.23-.89a57.43,57.43,0,0,0-3.57-11.67,8.92,8.92,0,0,0-2-3.07,1.77,1.77,0,0,0-2.08-.43,1.71,1.71,0,0,0-.92,1.8,8.57,8.57,0,0,0,1.09,3.52,60.16,60.16,0,0,0,7,10.55,1.24,1.24,0,0,1,.15,1.58c-2.08,4.27-4.11,8.57-6.17,12.85-.15.31-.15.72-.6.88-.49-1.64-.67-3.35-1.28-5a23.69,23.69,0,0,0-1.06-3.7Zm17.07,19.79a17,17,0,0,0,6.66-8.36,15.66,15.66,0,0,0,1.21-6.41c-.12-1.52-1-2-2.23-1.22a6.37,6.37,0,0,0-1.58,1.44,22.3,22.3,0,0,0-3.14,5.35A15.72,15.72,0,0,0,1542.29,1495.55Zm14.34,9.49a2.28,2.28,0,0,0,2.4-2.27,2.44,2.44,0,0,0-2.46-2.27,2.53,2.53,0,0,0-2.3,2.33A2.3,2.3,0,0,0,1556.63,1505Zm11.68,12.24a2.41,2.41,0,0,0,2.43-2.31,2.53,2.53,0,0,0-2.42-2.22A2.4,2.4,0,0,0,1566,1515,2.24,2.24,0,0,0,1568.31,1517.28Zm2.27-14.58a2.3,2.3,0,0,0-4.59,0,2.3,2.3,0,1,0,4.59,0Zm-128.34-1.47a2.19,2.19,0,0,0,2.26-2.11,2.43,2.43,0,0,0-2.34-2.15,2.16,2.16,0,0,0-2.16,2.13A2.07,2.07,0,0,0,1442.24,1501.23Zm-1.56,7.39a2.21,2.21,0,0,0-2.33,2,2.42,2.42,0,0,0,2.26,2.21,2.29,2.29,0,0,0,2.25-2.17A2.22,2.22,0,0,0,1440.68,1508.62Zm14.69-7.85a2.19,2.19,0,0,0-2.17-2.2,2,2,0,0,0-2.18,2,2.22,2.22,0,0,0,2.1,2.27A2.11,2.11,0,0,0,1455.37,1500.77Z" transform="translate(-1380 -1380)"/><path class="cls-2" d="M1473.41,1504.29a20.35,20.35,0,0,1-.54-5.5c.1-1.28.2-2.57.29-3.86,3.28.28,6.4-.59,9.52-1.38a117,117,0,0,0,11.25-3.64c3.67-1.33,7.33-2.67,10.88-4.3l1.2.22.46.26h0l0,.25a3.46,3.46,0,0,1-1.94,0c-.15.4-.4.67-.19,1.19.48-1,1.52-.54,2.2-1,.45.35.49.9.66,1.38q1.33,3.75,2.65,7.52a14.43,14.43,0,0,0-2.87,1.87,5.25,5.25,0,0,0,3-1.45c.34.56.23,1.33.86,1.75h0a2.65,2.65,0,0,0,.21,1.21,24.83,24.83,0,0,1-2.86,2.85l-.23.24-.32.1.07.09.27-.17.25-.23c1.31-.21,2-1.34,3.12-1.94.54,1.33,1,2.67,1.61,4,.78,1.81,1.26,3.76,2.44,5.39h0a13.8,13.8,0,0,0,1.92,4.56h0a3,3,0,0,0,1,1.92h0c0,.21,0,.4.24.48h0c0,.21,0,.41.24.48h0a.81.81,0,0,0,.48,1h0c0,.22,0,.41.24.48h0a.62.62,0,0,0,.24.72h0a.52.52,0,0,0,.25.49h0l.25.24h0c0,.22,0,.41.24.48h0l0,1.2c-.14.7-.31,1.4-.41,2.11-.37,2.7-1.27,5.37-.49,8.14,1.09,3.87,2.2,7.73,3.3,11.6a16.08,16.08,0,0,0,.89,3.19c.32,1.72.65,3.43,1,5.15l.06.43.06,1a3.75,3.75,0,0,1-2.68,2.5,33.54,33.54,0,0,1-10.9,1.85,104.66,104.66,0,0,1-21.8-1.16,27.73,27.73,0,0,1-8.46-2.42,2.52,2.52,0,0,1-1.7-2.12,22.19,22.19,0,0,1,.29-3.36l1-3.83c1.38-3.48,2.7-7,4.16-10.45a10.84,10.84,0,0,0,.7-5.85c-.44-3.2-1-6.39-1.55-9.57-.66-4.61-1.71-9.2-.77-14Zm28.51-16a3.53,3.53,0,0,1,1.68-.61c-.62,0-1.46-.52-1.68.61l-.24.24a6.62,6.62,0,0,1-2.21-.21c-.16.44-.29.81-.43,1.17l-1.79-.08c.6.34,1.2,1,1.79.08.59-.34,1.07-1,1.91-.52.28.14.59-.12.73-.44Z" transform="translate(-1380 -1380)"/><path class="cls-3" d="M1479.26,1551.37a2.55,2.55,0,0,0,1.71,2.12,27.73,27.73,0,0,0,8.46,2.42,104.66,104.66,0,0,0,21.8,1.16,33.54,33.54,0,0,0,10.9-1.85,3.75,3.75,0,0,0,2.68-2.5l5.57,0,5.78-.26a78.37,78.37,0,0,0,11-1.2,23.57,23.57,0,0,1,4.95-.65,18.28,18.28,0,0,1,6,0,15.79,15.79,0,0,1,8,2.32c2.48,1.56,3.28,3.52,2.77,6.45-1.06,6.08-4.76,10.15-10,13a36.39,36.39,0,0,1-14.78,4.09c-8.48.76-16.81-.37-25.09-2l-3.41-.63a23.5,23.5,0,0,1-.23-3.93c-.17-2.33-.17-2.33,1.69-3.22.47-.1,1-.15,1.4-.29,7-2.12,13.89-4.34,21-5.89,5.61-1.22,11.21-2.53,17-2.16-.08-.1-.14-.22-.24-.25a7.1,7.1,0,0,0-1-.32,27.36,27.36,0,0,0-8.52-.53c-4.2.44-8.33,1.18-12.46,2s-8.36,2.25-12.71,2.64a40.5,40.5,0,0,1-12.57-.69c-3.41-.76-6.75-1.91-10.31-1.75-2.79.12-5.51.75-8.28,1a22.64,22.64,0,0,1-7.83-.23,83.71,83.71,0,0,0-16.8-2.69,42.6,42.6,0,0,0-8.21.52,16,16,0,0,0-4.58,1.28c2.62-.23,5.21-.62,7.83-.61,1.36,0,2.71.11,4.06.21a36.78,36.78,0,0,1,10.09,2.24,89,89,0,0,0,17.7,4.34l-.07,1.16c-.47-.07-.94-.13-1.4-.22-2.37-.45-4,.25-4.86,2.2a1.29,1.29,0,0,1-1.4.9,3,3,0,0,0-3.18,3.12c-4.51.62-8.92,1.75-13.4,2.46a73.5,73.5,0,0,1-15.76.48,45.6,45.6,0,0,1-10.13-1.59c-3.49-1-6.78-2.4-9.16-5.33a10.16,10.16,0,0,1-2.12-7.75,6.33,6.33,0,0,1,1.91-3.38,10.72,10.72,0,0,0,1.91-1,12,12,0,0,1,2.15-.71,4.11,4.11,0,0,1,2.08-.43c-2.47,2-2.11,4.88.73,6.29,1.52-1.2-.69-2.61.31-3.91a6.87,6.87,0,0,0,2.74-1.32,2.76,2.76,0,0,1,3.41.25c1.37,1.07,1.49,2.44,1.21,4a7.2,7.2,0,0,0,.14,4,1.11,1.11,0,0,0,1.31.79c.55-.16.6-.72.44-1.21a1.94,1.94,0,0,1,.09-1.17c.81-2.89,1.21-5.87,3.16-8.43a5,5,0,0,1,2.58-2.08c1.83-.54,3.5-1.55,5.41-1.84-.26.37-.1.47.29.45,2.66-.07,5.32-.14,8-.19.5,0,.35-.25.28-.51C1472.56,1551.48,1475.93,1551.23,1479.26,1551.37Z" transform="translate(-1380 -1380)"/><path class="cls-4" d="M1527.76,1486.35c.72.48,1.48.92,2.15,1.46,2,1.63,2.5,4,2.72,6.36,0,.43,0,.87,0,1.31,0,1.48,0,3,0,4.44-.11,3.75-.62,7.48-.5,11.24v2.53c.08,1.54-.24,3.1.21,4.62,0,.26,0,.51.26.67,1.76,3.87,3.62,7.72,3.36,12.15v.38a4.09,4.09,0,0,1-1.18,1.61l-1.45.68-1.18,0-1.5-.5-1.9-1.38,0,0-.43-.26c-1.17-1.35-2.35-2.68-3.42-4.12-.77-1-1.23-2.33-2.31-3.14-.16-1.39-1.26-2.32-1.71-3.56,0-.41-.06-.77-.5-.93h0a.43.43,0,0,0-.24-.48h0l-.25-.24h0a.44.44,0,0,0-.25-.49h0c0-.27.06-.56-.24-.72h0a.43.43,0,0,0-.24-.48h0a1.17,1.17,0,0,0-.48-1h0a.43.43,0,0,0-.24-.48h0a.43.43,0,0,0-.24-.48h0a2.29,2.29,0,0,0-1-1.92h0a12.43,12.43,0,0,0-1.92-4.56h0a1.85,1.85,0,0,0-.2-.92c-.88-2.14-1.72-4.31-2.63-6.44-.38-.92-.42-2-1.28-2.7h0a1.49,1.49,0,0,0-.48-1.45h0a1.8,1.8,0,0,0,0-.47q-1.69-5-3.41-10a1.56,1.56,0,0,0-.89-1.05h0a.69.69,0,0,0-.47-.73h0a.46.46,0,0,0-.24-.48h0a.46.46,0,0,0-.24-.48h0c0-.26,0-.55-.24-.72h0c0-1.22-.62-2.37-.35-3.63.07-.3-.31-.46-.6-.43-.94.09-1.86.23-2.91.36.48,1,0,1.84,0,2.74h0a.47.47,0,0,0-.24.48h0c-.7.06-.74-.39-.73-.91,0-1.38,0-2.75,0-4.12,2.06-.29,4.11-.67,6.2-.88a5.9,5.9,0,0,0-1.77-.08c-1.5.24-3.08.08-4.45.94-.55.26-.47.77-.47,1.25v2.84h-.3c.32-2-.29-4,.07-6,.33,0,.7.1,1-.25.51,0,1-.08,1.53-.12a15.91,15.91,0,0,1,5.42.13c0,.26,0,.54.24.72.31,1.57,1.29,2.86,1.85,4.33a5.92,5.92,0,0,0,1.32,2.59l0,0c0,.42,0,.79.48,1h0a.42.42,0,0,0,.49.48h0c0,.37,0,.72.49.73h0a.66.66,0,0,0,.49.72h0a.44.44,0,0,0,.24.48h0l.24.24h0l.24.24h0a.65.65,0,0,0,.49.72h0a.44.44,0,0,0,.24.48h0a1,1,0,0,0,.72,1,.44.44,0,0,0,.24.48h0a.42.42,0,0,0,.49.48h0a.44.44,0,0,0,.24.48h0l.25.24h0a.44.44,0,0,0,.24.48h0l.24.24h0a.44.44,0,0,0,.24.48h0l.24.24h0a.44.44,0,0,0,.24.48h0l.24.24h0a.44.44,0,0,0,.24.48h0l.24.24h0a.44.44,0,0,0,.24.48h0l.24.24h0a.44.44,0,0,0,.24.48h0l.25.24h0a.44.44,0,0,0,.24.48h0l.24.24h0a.42.42,0,0,0,.24.48h0l.24.24h0a.81.81,0,0,0,.48,1h0c.27.65.4,1.41,1.2,1.68-.06.62.27,1,.9,1.47-.14-.65-.12-1.17-.66-1.45,0-.4,0-.81-.5-1h0c.14-1.42-.61-2.62-1-3.9-1-3.34-2.56-6.53-3.06-10a34.69,34.69,0,0,1,8.61,1c.29.32.69.21,1,.23A.65.65,0,0,0,1527.76,1486.35Zm-2.79,18.44-.12-.1.09.12.12.1Zm4.08,7-.12-.09.09.12a.52.52,0,0,0,.25.48.89.89,0,0,0,.48,1,.51.51,0,0,0,.24.48.51.51,0,0,0,.24.48l.11.1-.09-.12a.51.51,0,0,0-.24-.48.5.5,0,0,0-.24-.48.89.89,0,0,0-.48-1A.53.53,0,0,0,1529.05,1511.74Zm2.4,4.57-.12-.1.1.12a.49.49,0,0,0,.24.48l.1.32.09-.07c0-.09-.11-.18-.17-.27A.51.51,0,0,0,1531.45,1516.31Zm-.48-1-.12-.1.1.12.1.32s.09-.06.09-.07S1531,1515.44,1531,1515.35Zm-5.06-8.86.24.24a.89.89,0,0,0,.48,1l.12.1-.1-.12a.89.89,0,0,0-.48-1l-.24-.24c-.06-.22.12-.58-.33-.6C1525.4,1506.24,1525.71,1506.34,1525.91,1506.49Zm-1.66-2.9-.12-.1.09.12c.07.22-.1.58.39.6C1524.69,1503.87,1524.49,1503.72,1524.25,1503.59Zm2.88,4.8-.12-.1.1.12a.89.89,0,0,0,.48,1l.12.1-.09-.12A.91.91,0,0,0,1527.13,1508.39Zm1.34,2.19c0-.06,0-.15-.1-.16s-.12,0-.18.06l.14.22Z" transform="translate(-1380 -1380)"/><path class="cls-5" d="M1526.15,1485.85a34.69,34.69,0,0,0-8.61-1,.7.7,0,0,0-.53-.43,21.65,21.65,0,0,1-5.39-1.18c-.36-.12-.52,0-.54.39a5.92,5.92,0,0,1-1.32-2.59c-.56-1.47-1.54-2.76-1.85-4.33l0,0c.62.28.55,1.11,1.19,1.53,0-1.21,0-2.32,0-3.43a1.83,1.83,0,0,1,.62-1.47,15.21,15.21,0,0,0,3.9-7.38,1,1,0,0,1,.89-.92,2.68,2.68,0,0,0,2.26-2.3,2.61,2.61,0,0,0-1.77-3,1.34,1.34,0,0,1-.87-1.36c-.15-4.23-2-7.35-6-9.07a3.71,3.71,0,0,1,.11-.58,4.15,4.15,0,0,0-.44-4.59c-1.93-2.35-4.56-3-7.49-2.86a24.36,24.36,0,0,1-2.7.38,20.67,20.67,0,0,0-3.21-.81,3.7,3.7,0,0,0-4.18,2.12,8.86,8.86,0,0,0-.81,3.45c-.06,1.56.48,3,.5,4.59-.09.07-.17.19-.28.21-2.37.46-3.64,1.4-3.31,4.09-2.95,2.09-4.53,6-3.12,8-.46-3.28.52-5.82,3.34-7.5a27.32,27.32,0,0,1,2.34,5c.49-.2.12-.87.76-.91a10.85,10.85,0,0,0-.45,2.94c-.41-.16-.1-.55-.39-.8-.32.57-.93.64-1.47.79-2.25.63-4.52,1.18-6.42,2.68-.65.51-1,1.3-1.82,1.65-1.67-3.5-1-6.21,2.24-8.52,2.94-2,3.84-4.64,3-8.09-1.2-5,2.48-10.8,7.49-12a6.52,6.52,0,0,1,3-.11c.94.23,1.31,0,1.73-.83a9.7,9.7,0,0,1,8.68-5.45,10.27,10.27,0,0,1,10.12,8.5,13.69,13.69,0,0,1,.07,3.2c-.3,3.57.88,6.33,4.71,7.43a14.73,14.73,0,0,1,2.54,1,5.56,5.56,0,0,1,3.12,6.67c-.52,2.47-1.52,4.79-2.19,7.21a13.36,13.36,0,0,0-.56,4.61c-.09,2,1.19,3.43,2.16,5v0a.33.33,0,0,1,.12.14,23.69,23.69,0,0,1,1.06,3.7c0,1.47,0,2.93,0,4.39Zm-21.68-50.78,2.79-.42a4.19,4.19,0,0,1,4.86,2.82c1,2.83.53,5.59,0,8.37-.56,3.22.22,4.66,3.33,5.75a8.47,8.47,0,0,1,5.66,7.8,21.12,21.12,0,0,0-.19,3.06,7.35,7.35,0,0,0,.58-3.27c-.32-3.69-1.64-6.37-5.71-8.09-2.95-1.25-3.54-2.28-3-5.44a16.93,16.93,0,0,0,.33-6.5c-.43-2.09-1-4.1-3.33-4.84A6.61,6.61,0,0,0,1504.47,1435.07Z" transform="translate(-1380 -1380)"/><path class="cls-4" d="M1460.73,1550.89c-1.91.29-3.58,1.3-5.41,1.84a5,5,0,0,0-2.58,2.08c-2,2.56-2.35,5.54-3.16,8.43a1.94,1.94,0,0,0-.09,1.17c.16.49.11,1-.44,1.21a1.11,1.11,0,0,1-1.31-.79,7.2,7.2,0,0,1-.14-4c.28-1.54.16-2.91-1.21-4a2.76,2.76,0,0,0-3.41-.25,6.87,6.87,0,0,1-2.74,1.32c-1,1.3,1.21,2.71-.31,3.91-2.84-1.41-3.2-4.24-.73-6.29a4.11,4.11,0,0,0-2.08.43,12,12,0,0,0-2.15.71,10.72,10.72,0,0,1-1.91,1c-.43,0-.93,0-1.09-.53s.32-.76.67-1a17.64,17.64,0,0,0,2.4-1.64h-1c-.42,0-.84,0-1-.52s.36-.6.72-.75a14.07,14.07,0,0,1,4-.85c.1-.44-.45-.67-.1-1.14a17.2,17.2,0,0,1,2.84.18,9.86,9.86,0,0,0,6.47-1,53.33,53.33,0,0,0,10.12-5.84c.23,0,.32-.16.37-.36a7.45,7.45,0,0,0,2.64-1.94,5.42,5.42,0,0,0,1.91-1.48,73.29,73.29,0,0,0,8.56-7.77.88.88,0,0,0,.27-.76,6.11,6.11,0,0,0,.93-2.53,48.93,48.93,0,0,0,1.22-8.61,61.35,61.35,0,0,0,.46-8.68v-2.54c.15-1.88-.15-3.74-.16-5.61h9.69c-.94,4.82.11,9.41.77,14a39.46,39.46,0,0,0-1.2,6l-1.13,5.15c-.06.4-.09.79-.17,1.18-.72,3.41-1.52,6.81-2.49,10.17a10.1,10.1,0,0,1-1.47,2.13c-1.62.93-3.17,2-4.87,2.74-2.13,1-4.25,2-6.37,3l-.5.26A19.23,19.23,0,0,0,1460.73,1550.89Z" transform="translate(-1380 -1380)"/><path class="cls-6" d="M1532.18,1533.84l1.18,0c1,.83.77,1.93.61,3a27.53,27.53,0,0,1-1.24,4,40.34,40.34,0,0,0-2,4.39c-1.19,1.22-1.72,2.81-2.69,4.15l.23.17,5.34-2.65,6.48-3.26c.76-.24,1.76-.2,1.91-1.25.22-1.53.33-3.07.49-4.61.33-1.83.65-3.66,1-5.49.15-.44.31-.88.45-1.32.51-1.52.89-3.11,2.18-4.23,1-.67,1.69-.32,2.34.48a5.33,5.33,0,0,1-.09,3.14c-.36,1.2-.77,2.39-1.16,3.59a30.5,30.5,0,0,0-2.1,4.25c-1.13,1.27-1.69,2.86-2.73,4.28.29,0,.38.08.44,0q6.66-2.87,13.32-5.73a1.09,1.09,0,0,0,.68-1q.45-3.68.91-7.37a7,7,0,0,0,.43-2.07c.14-.45.31-.89.44-1.35a12.82,12.82,0,0,1,1.58-3.71,1.73,1.73,0,0,1,2-1,1.76,1.76,0,0,1,1.18,1.88c0,.56-.1,1.11-.16,1.66-1.19,4.39-3.57,8.23-6,12.43,2.39-.93,4.45-1.74,6.53-2.52s4.09-1.64,6.19-2.24a2.37,2.37,0,0,0,1.9-2.54,50.65,50.65,0,0,1,1.72-9.91,11.14,11.14,0,0,1,1.39-3.3c.5-.74,1.06-1.48,2.13-1.14s1.19,1.19,1.18,2.12a11.57,11.57,0,0,1-1,4,62.34,62.34,0,0,1-4.39,8.52,2,2,0,0,0-.54,1.27l5.47-1.79c1.52-.49,3-1,4.57-1.43a1.71,1.71,0,0,0,1.44-1.84,55.31,55.31,0,0,1,1.46-9.22,14.57,14.57,0,0,1,1.64-4.36c.5-.8,1.11-1.58,2.21-1.2s1.24,1.31,1.16,2.27a16.22,16.22,0,0,1-1.6,5.25,75.7,75.7,0,0,1-4.66,8.52l5.76-1.6c1.16-.31,2.31-.69,3.48-.9a23.13,23.13,0,0,0,6.3-2.54,35.66,35.66,0,0,1,8.33-3.31,5.86,5.86,0,0,1,2.73-.12,1.55,1.55,0,0,1,.7,2.75,8.2,8.2,0,0,1-3.35,1.54,35.44,35.44,0,0,1-7.92,1.25c-4.16.15-8.07,1.46-12,2.5-1,.27-2.08.59-3.12.9.08.43.43.38.72.45a59.29,59.29,0,0,1,9,2.85,11.41,11.41,0,0,1,3.78,2.28,1.67,1.67,0,0,1-1.5,3,11.74,11.74,0,0,1-4-1.61,58.33,58.33,0,0,1-8.31-5.89,1.81,1.81,0,0,0-1.94-.4c-3.25,1.09-6.53,2.11-9.81,3.38,1.2.32,2.4.63,3.59,1a41,41,0,0,1,8,2.91,7.34,7.34,0,0,1,2.49,1.85,1.62,1.62,0,0,1,.28,1.89,1.6,1.6,0,0,1-1.63.79,8.33,8.33,0,0,1-3.39-1.11,57.86,57.86,0,0,1-9.47-6.51c-.4-.32-.73-.66-1.37-.43-4.66,1.67-9.3,3.39-13.9,5.37,2.49.54,4.82,1.61,7.38,1.81.12.56.63.53,1,.68a24.3,24.3,0,0,1,4.3,2c1.34.85,2.43,1.82,1.89,3.64-1.67.76-3.2.19-4.7-.55a41.41,41.41,0,0,1-8.72-5.87,3.37,3.37,0,0,0-4.29-.63c-3.43,1.68-7,3.09-10.52,4.62-.35.15-.68.35-1.22.62,2.19.59,4.17,1.1,6.14,1.67a32.94,32.94,0,0,1,6.56,2.56c1.32.72,2.53,1.56,2.84,3.18a18.28,18.28,0,0,0-6,0,.85.85,0,0,0-.48-.5A59,59,0,0,1,1543,1544c-.83-.7-1.43-.68-2.07.15a21.6,21.6,0,0,0-5.88,2.69c-2.39.81-4.51,2.16-7,3.25a66.21,66.21,0,0,1,8.12,2.42l-5.78.26a6.59,6.59,0,0,0-2.62-2.27c-.59-.36-1.24.5-1.9.73-.22.07-.41.26-.67.14.19-.79,1-.72,1.51-1.07s.78-.5.83-1.06c.18-1.93.39-3.86.58-5.78a7.38,7.38,0,0,0,.44-2.67,3.44,3.44,0,0,0,.5-2.14h0c.17,0,.18-.09.2-.21a16.13,16.13,0,0,1,1.41-3.5C1531,1534.35,1531.35,1533.76,1532.18,1533.84Z" transform="translate(-1380 -1380)"/><path class="cls-6" d="M1468.43,1465.33c-1.48-3.75-3.35-7.33-5-11-.28-.6-.76-.61-1.28-.68a67.92,67.92,0,0,1-12.29-2.62,13,13,0,0,1-3.64-1.78c-.73-.54-1.34-1.21-1-2.24a2,2,0,0,1,2.19-1.29,14.21,14.21,0,0,1,5.58,1.66,96.12,96.12,0,0,1,9.35,5.36l.21.11-.08-.24c-2.53-5-4.78-10.19-8.39-14.6a42.45,42.45,0,0,1-6.14-9.41,6.34,6.34,0,0,1-.69-2.77,1.7,1.7,0,0,1,2.67-1.53,6.59,6.59,0,0,1,2.36,2.81,53.25,53.25,0,0,1,4.26,11.81,11.14,11.14,0,0,0,1,2.55q3,5.28,5.63,10.71c.09.17.21.32.43.67l.71-2.41a54.75,54.75,0,0,1,4.37-11.25,8.22,8.22,0,0,1,2.09-2.6,1.82,1.82,0,0,1,3,1.84,12.18,12.18,0,0,1-1.75,4.17,67.35,67.35,0,0,1-7.62,10,1.26,1.26,0,0,0-.23,1.66c1.64,3.42,3.22,6.87,4.83,10.3a1.84,1.84,0,0,0,.66,1c.14-.43.28-.81.39-1.21a61.92,61.92,0,0,1,4.29-11.55,10.3,10.3,0,0,1,2.23-3.09,2,2,0,0,1,2.41-.46,1.92,1.92,0,0,1,.8,2.31,14.2,14.2,0,0,1-2.12,4.67,65.07,65.07,0,0,1-7.11,9.18,1.62,1.62,0,0,0-.3,2.08c2,4.63,3.85,9.3,5.77,14,.1.25.21.5.38.9l2.78-8.5,3,2.42-1.32,1.88-.22.27-.3.4-.21.28-.23.25a7.85,7.85,0,0,1-1,1c-2.31,1.73-2.4,3.79-1,6.1l-.6.31c-.29-.78-.6-1.55-.85-2.34a1.31,1.31,0,0,0-1.28-1,76.29,76.29,0,0,1-9.23-1.66c-.53-.26-.72-.81-1.08-1.22-1.13-1.26-1.76-1.26-2.79,0a9.72,9.72,0,0,1-3.34-1.82,1.8,1.8,0,0,1-.64-2.14,1.84,1.84,0,0,1,1.82-1.12,9.47,9.47,0,0,1,4.06.9,60.66,60.66,0,0,1,10.49,5.74c.34.22.68.41,1,.62l.21.1-.06-.26c-1.9-5.29-4.14-10.44-6.38-15.6-.23-.55-.67-.58-1.16-.64a68.73,68.73,0,0,1-12.38-2.64,12.32,12.32,0,0,1-3.64-1.78,2,2,0,0,1-1-2.36c.41-1.1,1.4-1.25,2.39-1.18a17.07,17.07,0,0,1,6.09,2c3,1.44,5.81,3.33,8.68,5l.23.11Z" transform="translate(-1380 -1380)"/><path class="cls-7" d="M1482.1,1476.26l-3-2.42c-.31-1.23-.91-2.39-.77-3.75.11-1,.67-1.92.73-2.95.79-.35,1.17-1.14,1.82-1.65,1.9-1.5,4.17-2,6.42-2.68.54-.15,1.15-.22,1.47-.79.29.25,0,.64.39.8a10.85,10.85,0,0,1,.45-2.94c-.64,0-.27.71-.76.91a27.32,27.32,0,0,0-2.34-5,.49.49,0,0,0-.22-.51c-.33-2.69.94-3.63,3.31-4.09.11,0,.19-.14.28-.21a.52.52,0,0,0,.54-.2c2-.08,3.56-1.55,3.26-3.28a4.48,4.48,0,0,1,2-4.62c.35-.27.89-.43.94-1,.34,0,.72.13,1-.24a24.36,24.36,0,0,0,2.7-.38c2.93-.18,5.56.51,7.49,2.86a4.15,4.15,0,0,1,.44,4.59,3.71,3.71,0,0,0-.11.58c-1.6.47-2.71-.82-4.1-1.13-1.14-.44-2.18,0-3.21.39-2.58.86-3.44,2.34-3.06,5,.34,2.36.42,4.65-2.1,6-.06,0-.09.13-.13.2l-.08.05-.28.26,0,0a.88.88,0,0,0-.74.5.82.82,0,0,0-.57.47,2.56,2.56,0,0,0-.65,3.42,19.14,19.14,0,0,0,1.55,2.81,7.62,7.62,0,0,1,1.39,4.46l0,0-.21.33a1.56,1.56,0,0,0-.26,1,10.81,10.81,0,0,1-4.68,3.62,12.39,12.39,0,0,1-8.47-.23Zm21.5-31.94c.08.1.14.31.31.09l-.31-.09c-.09-.09-.14-.31-.31-.09Zm-1.2-.48.26.18.06-.09-.32-.09a4.67,4.67,0,0,0-5.55.09,6.24,6.24,0,0,1,4-.36A3,3,0,0,0,1502.4,1443.84ZM1490.65,1458a20.07,20.07,0,0,1,4.14-2.21.7.7,0,0,0,.43-.66c.87-.2.9-.89.94-1.58a24,24,0,0,0-.46-3.88,8.76,8.76,0,0,1,1.09-5.5,1.4,1.4,0,0,0-1.08,1.12,10.41,10.41,0,0,0-.38,5.28c.25,1.52.7,3-.14,4.53-1.22.57-2.44,1.12-3.63,1.73a1.51,1.51,0,0,0-.93,1.15l-.09.12Zm-.8.82a.78.78,0,0,0-.13.24c0,.11,0,.24.16.18a.34.34,0,0,0,.19-.23C1490.11,1458.89,1490,1458.82,1489.85,1458.83Z" transform="translate(-1380 -1380)"/><path class="cls-6" d="M1526.42,1484c0-1.46,0-2.92,0-4.39.61,1.6.79,3.31,1.28,5,.45-.16.45-.57.6-.88,2.06-4.28,4.09-8.58,6.17-12.85a1.24,1.24,0,0,0-.15-1.58,60.16,60.16,0,0,1-7-10.55,8.57,8.57,0,0,1-1.09-3.52,1.71,1.71,0,0,1,.92-1.8,1.77,1.77,0,0,1,2.08.43,8.92,8.92,0,0,1,2,3.07,57.43,57.43,0,0,1,3.57,11.67c0,.22.12.44.23.89.28-.44.46-.7.62-1,1.68-3.13,3.32-6.29,5-9.39a1.45,1.45,0,0,0-.16-1.89,55.06,55.06,0,0,1-7-10.7,9.08,9.08,0,0,1-.91-2.84,1.81,1.81,0,0,1,.91-2.14,1.87,1.87,0,0,1,2.25.63,12,12,0,0,1,2.4,4.12,68.34,68.34,0,0,1,3.18,11.16c.46,0,.48-.38.62-.61,1.9-3.34,3.86-6.63,5.94-9.86a7.83,7.83,0,0,0,.85-2,54.88,54.88,0,0,1,4.4-10.6,8.78,8.78,0,0,1,2.09-2.6,1.79,1.79,0,0,1,2.2-.37,1.83,1.83,0,0,1,.74,2.21,12.67,12.67,0,0,1-1.83,3.88,44,44,0,0,1-4.93,6.34c-3.72,4-6.13,8.74-8.8,13.37,0,.1,0,.2-.07.3l.29-.06a78.14,78.14,0,0,1,9.45-4.66,12.38,12.38,0,0,1,4.53-1c1,0,1.89.16,2.2,1.25s-.38,1.73-1.21,2.24a18.75,18.75,0,0,1-6.22,2,76.13,76.13,0,0,1-9,1.18,1.2,1.2,0,0,0-1.14.66c-1.79,3.35-3.61,6.68-5.48,10.14a2.29,2.29,0,0,0,1.48-.57,54.33,54.33,0,0,1,10.18-4.78,10.83,10.83,0,0,1,2.69-.56c1,0,2.09.07,2.47,1.23s-.43,1.86-1.33,2.41a13.11,13.11,0,0,1-3.44,1.35,57.25,57.25,0,0,1-10.88,1.67,2.34,2.34,0,0,0-2.29,1.48c-1.94,4.21-4,8.36-6,12.54a8.69,8.69,0,0,0-.37,1c-.08.08-.18.17,0,.26s.1-.09.15-.14c2.75-1.44,5.42-3.07,8.3-4.27a17.77,17.77,0,0,1,6.06-1.76c1,0,2,.06,2.36,1.18s-.4,1.89-1.3,2.41a21.88,21.88,0,0,1-7.07,2.15,70.55,70.55,0,0,1-8.2,1c-.41,0-.81,0-1,.52a.65.65,0,0,1-.56-.27C1527.9,1485,1526.85,1484.62,1526.42,1484Z" transform="translate(-1380 -1380)"/><path class="cls-4" d="M1563.18,1523.78c.06-.55.14-1.1.16-1.66a1.76,1.76,0,0,0-1.18-1.88,1.73,1.73,0,0,0-2,1,12.82,12.82,0,0,0-1.58,3.71c-.13.46-.3.9-.44,1.35a32.39,32.39,0,0,0-11.63-3c-.75,0-.93-.34-.75-1.09a24.15,24.15,0,0,0,.53-5.22,27.22,27.22,0,0,0-1.18-9,12.5,12.5,0,0,1,2.84-2.54,3.89,3.89,0,0,1,4.06-.42c1.38.76,1.72,2.12,1.76,3.57,0,.6,0,1.19,0,1.86.76,0,1.23-.57,1.79-.87a12.68,12.68,0,0,1,5.36-1.89c2.62-.15,3.75,1.34,3,3.88a17.07,17.07,0,0,1-3.4,5.58c1.72.57,3.63.93,4,3.06A3.92,3.92,0,0,1,1563.18,1523.78Z" transform="translate(-1380 -1380)"/><path class="cls-4" d="M1448,1522.85a9.37,9.37,0,0,1-4.08-4.09c-1.2-2.48.06-4.63,2.79-4.86.31,0,.64.08,1-.19a3.88,3.88,0,0,0-.67-1.33,12.43,12.43,0,0,1-1.81-4.77,2.42,2.42,0,0,1,2.92-2.89,11.55,11.55,0,0,1,5.23,2.49c.55.39,1,.85,1.59,1.28.36-.31.18-.69.19-1,.05-1.68.45-3.24,2.11-4s3.18.19,4.41,1.32a7.34,7.34,0,0,1,1.77,2.38c-.19.44-.39.87-.57,1.32a32.69,32.69,0,0,0-1.89,11.47c0,.72,0,1.21-1,1.18A32.3,32.3,0,0,0,1448,1522.85Z" transform="translate(-1380 -1380)"/><path class="cls-4" d="M1517,1566.75c-1.86.89-1.86.89-1.69,3.22a23.5,23.5,0,0,0,.23,3.93c-3.46,2.27-7.28,2.44-11.18,1.81-4.76-.77-9.49-1.74-14.26-2.41a16,16,0,0,0-7.36.46,1.23,1.23,0,0,1-.83.11c-.31-.31-.13-.74-.21-1.12a3,3,0,0,1,3.18-3.12,1.29,1.29,0,0,0,1.4-.9c.84-2,2.49-2.65,4.86-2.2.46.09.93.15,1.4.22,0,.26,0,.69.37.58a4.31,4.31,0,0,1,2.52.46,7,7,0,0,0,4.9.11c1.87-.82,3.05-2.58,4.21-4.24a2,2,0,0,0,.66-.2,3,3,0,0,1,3.75.11c1,.65,1.87,1.36,2.8,2a3.77,3.77,0,0,0,1.93.86C1514.81,1566.54,1515.92,1566.65,1517,1566.75Z" transform="translate(-1380 -1380)"/><path class="cls-8" d="M1448,1522.85a32.3,32.3,0,0,1,12-1.7c1,0,1-.46,1-1.18a32.69,32.69,0,0,1,1.89-11.47c.18-.45.38-.88.57-1.32,1.14-.35,1.42-.11,1.6,1.24a28.85,28.85,0,0,1-1.37,12,1.26,1.26,0,0,0,.48,1.68c1,.72,1.87,1.56,2.92,2.45.17-1.22.26-2.31.47-3.38a19.45,19.45,0,0,1,2.79-6.56c.23-.36.59-.67.48-1.17.54,0,.83-.41,1.2-.68a1.61,1.61,0,0,1,1.62-.31,61.35,61.35,0,0,1-.46,8.68,19.29,19.29,0,0,1-3.88,5.73l2.66,2.88a6.11,6.11,0,0,1-.93,2.53.77.77,0,0,0-1.15-.06,17,17,0,0,1-9.43,3.32l-3.7-.24c-.88-.22-2-.28-2.18-1.37s.83-1.58,1.61-2a17.42,17.42,0,0,1,11.93-1.81c.19,0,.38.1.58.13a1.66,1.66,0,0,0,.35-.07,54.49,54.49,0,0,0-4.36-4.71c-1.55-1.72-3.15-1.79-5.28-1.22a24.6,24.6,0,0,1-10,.46,6,6,0,0,1-.92-.25C1447.47,1524.16,1447.16,1523.67,1448,1522.85Z" transform="translate(-1380 -1380)"/><path class="cls-6" d="M1432.31,1533.37c-2.53-1-5.09-1.9-7.61-2.92a1.49,1.49,0,0,0-2,.45,39.7,39.7,0,0,1-6.54,6.15,7.23,7.23,0,0,1-2.55,1.29,1.59,1.59,0,0,1-1.84-.51,1.77,1.77,0,0,1-.08-2.13,6.75,6.75,0,0,1,2.48-2.21,36.38,36.38,0,0,1,7.26-3.12l1.51-.55c-2.66-.89-5.08-1.57-7.39-2.53a3.17,3.17,0,0,0-4.33,1.11,25.16,25.16,0,0,1-5.93,5.38,6.47,6.47,0,0,1-2.16,1,1.62,1.62,0,0,1-1.84-.5,1.79,1.79,0,0,1-.09-2.13,5.21,5.21,0,0,1,1.49-1.54,30.6,30.6,0,0,1,8.13-3.74,2.87,2.87,0,0,0,1.23-.68c-2.62-.73-5.25-1.41-7.85-2.2-3-.92-6.11-.63-9.14-1.2a28.66,28.66,0,0,1-4.19-1,6.41,6.41,0,0,1-2.1-1.14,1.69,1.69,0,0,1-.64-1.91c.28-.82,1-1,1.75-1a7.28,7.28,0,0,1,2.58.52,21.92,21.92,0,0,1,3.88,1.58c4.45,2.67,9.4,3.91,14.32,5.28l2,.57c-.39-.59-.66-1-.92-1.4a60,60,0,0,1-5.54-9.65,7.83,7.83,0,0,1-.84-3.35,1.28,1.28,0,0,1,.72-1.28,1.26,1.26,0,0,1,1.42.39,7.05,7.05,0,0,1,1.5,2.29,59.26,59.26,0,0,1,3.75,12,1.79,1.79,0,0,0,1.39,1.52c2.49.77,4.93,1.65,7.39,2.48a3.38,3.38,0,0,0,1.38.34c.1-.56-.31-.84-.53-1.18a56.53,56.53,0,0,1-5.82-10.45,6.65,6.65,0,0,1-.53-2.45,1.31,1.31,0,0,1,.81-1.34,1.27,1.27,0,0,1,1.39.46,7.21,7.21,0,0,1,1.5,2.29,58,58,0,0,1,3.66,11.77A2.17,2.17,0,0,0,1425,1530c2.79,1,5.53,2.1,8.29,3.17C1433,1533.71,1432.66,1533.45,1432.31,1533.37Z" transform="translate(-1380 -1380)"/><path class="cls-8" d="M1545.1,1508a27.22,27.22,0,0,1,1.18,9,24.15,24.15,0,0,1-.53,5.22c-.18.75,0,1,.75,1.09a32.39,32.39,0,0,1,11.63,3,7,7,0,0,1-.43,2.07l-1.31,0c-2.73.07-5.32-.75-8-1.23-.65-.8-1.39-1.15-2.34-.48a2.2,2.2,0,0,0-3-.72,72,72,0,0,0-7.08,5.21c.26-4.43-1.6-8.28-3.36-12.15v-.66a27.52,27.52,0,0,1,.23-5.13h0c1.35-1.59,2-1.62,3.14.15a17.72,17.72,0,0,1,2.91,9.93c0,.74,0,1.48,0,2.41l4-2.46c.38-.24.3-.57.23-1a33.28,33.28,0,0,1-.1-11.86,11,11,0,0,1,.56-1.94C1543.85,1507.66,1544.36,1507.41,1545.1,1508Z" transform="translate(-1380 -1380)"/><path class="cls-8" d="M1542.29,1495.55a15.72,15.72,0,0,1,.92-9.2,22.3,22.3,0,0,1,3.14-5.35,6.37,6.37,0,0,1,1.58-1.44c1.25-.77,2.11-.3,2.23,1.22a15.66,15.66,0,0,1-1.21,6.41A17,17,0,0,1,1542.29,1495.55Z" transform="translate(-1380 -1380)"/><path class="cls-8" d="M1432.31,1533.37c.35.08.73.34.94-.21a7.1,7.1,0,0,0,2.29-.29h1.12a14.74,14.74,0,0,1,7.26,1.3c-.79,1-2,1.43-2.71,2.29-.26,0-.49.06-.45.41a3.22,3.22,0,0,0-1.56.46c-1.58.77-3.34.82-5,1.26-.38-.33-.83-.14-1.24-.16a14.39,14.39,0,0,1-4-.28c-.75-.12-1.48-.45-1.61-1.21s.63-1.27,1.23-1.74C1429.73,1534.33,1431.23,1534.28,1432.31,1533.37Z" transform="translate(-1380 -1380)"/><path class="cls-8" d="M1462.06,1480.59c1-1.29,1.66-1.29,2.79,0,.36.41.55,1,1.08,1.22a3.3,3.3,0,0,0,.16.56,17.92,17.92,0,0,1,2.24,10.38c-.29.89-.13,1.89-.69,2.72-.64-.06-.87-.56-1.23-.91-.66-.66-1-1.61-2-2a1.49,1.49,0,0,0-.07-.57A17.68,17.68,0,0,1,1462.06,1480.59Z" transform="translate(-1380 -1380)"/><path class="cls-6" d="M1440.76,1536.88c0-.35.19-.39.45-.41l8.28,3.73c.12.08.25.16.36,0s0-.17-.08-.26c-1.62-2.57-3.34-5.06-4.75-7.75a18.66,18.66,0,0,1-2.2-5.53c-.13-.78-.19-1.58.67-2s1.44.24,1.87.86c1.7,2.38,2.47,5.17,3.29,7.91.63,2.1,1.15,4.23,1.63,6.37a1.73,1.73,0,0,0,1.06,1.3c2.09,1,4.16,2,6.23,3,0,.21-.14.36-.37.37a49,49,0,0,0-7.13-3.3h0a4.39,4.39,0,0,0-1.93-1.1C1445.7,1539.05,1443.23,1538,1440.76,1536.88Z" transform="translate(-1380 -1380)"/><path class="cls-6" d="M1450.07,1541.27c0,.08,0,.19,0,.23a33.85,33.85,0,0,1-8.53,7.79c-1.56.91-2.62.79-3.22-.15s-.25-2.14,1.08-3.2a26.88,26.88,0,0,1,8-3.9c.86-.3,1.75-.51,2.63-.76Z" transform="translate(-1380 -1380)"/><path class="cls-8" d="M1572,1545c.54-1.82-.55-2.79-1.89-3.64a24.3,24.3,0,0,0-4.3-2c-.38-.15-.89-.12-1-.68a4,4,0,0,1,2.89-.25,19.58,19.58,0,0,1,8.77,3.26c1,.64,2.34,1.36,1.9,2.72s-1.88,1.1-3,1.13A6.51,6.51,0,0,1,1572,1545Z" transform="translate(-1380 -1380)"/><path class="cls-6" d="M1436.66,1532.88h-1.12c-1.44-2.39-3-4.7-4.26-7.21a19.91,19.91,0,0,1-1.62-4,8.36,8.36,0,0,1-.19-1.42,1.19,1.19,0,0,1,2.12-.92,6.17,6.17,0,0,1,1.36,2,50.64,50.64,0,0,1,3.47,10.56Z" transform="translate(-1380 -1380)"/><path class="cls-6" d="M1464.46,1492.53c.93.39,1.29,1.34,2,2,.36.35.59.85,1.23.91.56-.83.4-1.83.69-2.72a27.91,27.91,0,0,1,4.76,2l.07.24c-.09,1.29-.19,2.58-.29,3.86a31.17,31.17,0,0,1-6.67-2.11,6.63,6.63,0,0,1-1.79-1.16C1463.28,1494.46,1463.3,1493.61,1464.46,1492.53Z" transform="translate(-1380 -1380)"/><path class="cls-6" d="M1429,1538.16a14.39,14.39,0,0,0,4,.28c.41,0,.86-.17,1.24.16a22.22,22.22,0,0,1-5.57,4.65,7.2,7.2,0,0,1-1.22.48,1.56,1.56,0,0,1-1.93-.51,1.78,1.78,0,0,1,0-2.13,6.33,6.33,0,0,1,2.08-1.94Z" transform="translate(-1380 -1380)"/><path class="cls-6" d="M1532.67,1499.92c0-1.48,0-3,0-4.44a21.87,21.87,0,0,1,3.48-.87,4.32,4.32,0,0,1,1.19,0,1.74,1.74,0,0,1,.89,3.28,9.67,9.67,0,0,1-3,1.4C1534.38,1499.51,1533.52,1499.71,1532.67,1499.92Z" transform="translate(-1380 -1380)"/><path class="cls-6" d="M1456.67,1535.28l3.7.24c.58,1.76,1.16,3.51,1.75,5.27a5.42,5.42,0,0,1-1.91,1.48A34.52,34.52,0,0,1,1456.67,1535.28Z" transform="translate(-1380 -1380)"/><path class="cls-8" d="M1556.63,1505a2.3,2.3,0,0,1-2.36-2.21,2.53,2.53,0,0,1,2.3-2.33,2.44,2.44,0,0,1,2.46,2.27A2.28,2.28,0,0,1,1556.63,1505Z" transform="translate(-1380 -1380)"/><path class="cls-8" d="M1568.31,1517.28a2.24,2.24,0,0,1-2.3-2.24,2.4,2.4,0,0,1,2.31-2.29,2.53,2.53,0,0,1,2.42,2.22A2.41,2.41,0,0,1,1568.31,1517.28Z" transform="translate(-1380 -1380)"/><path class="cls-8" d="M1570.58,1502.7a2.3,2.3,0,1,1-4.59,0,2.3,2.3,0,0,1,4.59,0Z" transform="translate(-1380 -1380)"/><path class="cls-8" d="M1442.24,1501.23a2.07,2.07,0,0,1-2.24-2.13,2.16,2.16,0,0,1,2.16-2.13,2.43,2.43,0,0,1,2.34,2.15A2.19,2.19,0,0,1,1442.24,1501.23Z" transform="translate(-1380 -1380)"/><path class="cls-8" d="M1440.68,1508.62a2.22,2.22,0,0,1,2.18,2.07,2.29,2.29,0,0,1-2.25,2.17,2.42,2.42,0,0,1-2.26-2.21A2.21,2.21,0,0,1,1440.68,1508.62Z" transform="translate(-1380 -1380)"/><path class="cls-8" d="M1455.37,1500.77a2.11,2.11,0,0,1-2.25,2.1,2.22,2.22,0,0,1-2.1-2.27,2,2,0,0,1,2.18-2A2.19,2.19,0,0,1,1455.37,1500.77Z" transform="translate(-1380 -1380)"/><path class="cls-6" d="M1473.56,1512.44a1.61,1.61,0,0,0-1.62.31c-.37.27-.66.7-1.2.68a8.91,8.91,0,0,1-.8-.7,1.7,1.7,0,0,1-.53-1.82,1.9,1.9,0,0,1,1.59-1.25,7.7,7.7,0,0,1,2.57.24C1473.57,1510.75,1473.56,1511.6,1473.56,1512.44Z" transform="translate(-1380 -1380)"/><path class="cls-6" d="M1525.21,1475.74c-1-1.54-2.25-3-2.16-5A14.33,14.33,0,0,1,1525.21,1475.74Z" transform="translate(-1380 -1380)"/><path class="cls-6" d="M1532.17,1513.69v-2.53c.86.46.67,1.28.68,2h0C1532.51,1513.17,1532.48,1513.62,1532.17,1513.69Z" transform="translate(-1380 -1380)"/><path class="cls-6" d="M1525.34,1475.9a.33.33,0,0,0-.12-.14Z" transform="translate(-1380 -1380)"/><path class="cls-4" d="M1473.16,1494.93l-.06-.24c.25-3.24,1-6.2,4.19-7.91l.6-.31,2.47-.86c3.47-.58,7-.73,10.5-1a10,10,0,0,0,3.64-1,3.51,3.51,0,0,0,2.11-3,1.61,1.61,0,0,1,.76-1.24,2.73,2.73,0,0,1,.25-.23l.24-.24.24-.25.23-.24a.52.52,0,0,0,.24-.48l.24-.24c.54-.24.47.15.47.47,0,1.26,0,2.53,0,3.79a1.3,1.3,0,0,0,1.91,1.25h0l.27-.25,3.34,2.66c-3.55,1.63-7.21,3-10.88,4.3a117,117,0,0,1-11.25,3.64C1479.56,1494.34,1476.44,1495.21,1473.16,1494.93Z" transform="translate(-1380 -1380)"/><path class="cls-1" d="M1520.89,1520.86c.45,1.24,1.55,2.17,1.71,3.56a17.09,17.09,0,0,0,4.29,13c-1.64,1.67-2.6,3.77-4.06,5.51-1.1-3.87-2.21-7.73-3.3-11.6-.78-2.77.12-5.44.49-8.14.1-.71.27-1.41.41-2.11Z" transform="translate(-1380 -1380)"/><path class="cls-8" d="M1522.83,1543c1.46-1.74,2.42-3.84,4.06-5.51a17.09,17.09,0,0,1-4.29-13c1.08.81,1.54,2.09,2.31,3.14,1.07,1.44,2.25,2.77,3.42,4.12l.43.26,0,0c.18,1-.42,2.06-.12,3.21.8-.56,1-1.62,2-1.83l1.5.5c-.83-.08-1.18.51-1.53,1.1a16.13,16.13,0,0,0-1.41,3.5l-.2.21h0a6.75,6.75,0,0,0-1.42,1.9c.29.35.64.14.92.24a7.38,7.38,0,0,1-.44,2.67l-1.6-1.27c-1.21,1.17-1.67,2.82-2.79,4A16.08,16.08,0,0,1,1522.83,1543Z" transform="translate(-1380 -1380)"/><path class="cls-1" d="M1478.88,1540.8c1-3.36,1.77-6.76,2.49-10.17.08-.39.11-.78.17-1.17a.4.4,0,0,0,.42-.34,16.08,16.08,0,0,0,.71-4.82,39.46,39.46,0,0,1,1.2-6c.54,3.18,1.11,6.37,1.55,9.57a10.84,10.84,0,0,1-.7,5.85c-1.46,3.46-2.78,7-4.16,10.45Z" transform="translate(-1380 -1380)"/><path class="cls-1" d="M1466.17,1548.64c2.12-1,4.24-2,6.37-3,1.7-.78,3.25-1.81,4.87-2.74.71,1.69,1.43,3.39,2.15,5.08a22.19,22.19,0,0,0-.29,3.36c-3.34-.14-6.71.11-10-.73.11-.27-.07-.25-.24-.24h0c-.06-.28-.24-.32-.48-.24h0C1468,1549.36,1466.93,1549.2,1466.17,1548.64Z" transform="translate(-1380 -1380)"/><path class="cls-1" d="M1523.72,1546.17c1.12-1.17,1.58-2.82,2.79-4l1.6,1.27c-.19,1.92-.4,3.85-.58,5.78,0,.56-.43.77-.83,1.06s-1.32.28-1.51,1.07h0c-.15-.22-.33-.06-.51,0C1524.37,1549.6,1524,1547.89,1523.72,1546.17Z" transform="translate(-1380 -1380)"/><path class="cls-9" d="M1504.81,1485.61l-3.34-2.66,0-.23h0a1.78,1.78,0,0,0,.48-1.64c0-.7.26-1,1-1,.53,0,1.11-.18,1.64.23.06,1.15-.07,2.37.75,3.36h0c0,.27,0,.55.24.72h0a.47.47,0,0,0,.24.48h0a.47.47,0,0,0,.24.48h0v.47Z" transform="translate(-1380 -1380)"/><path class="cls-8" d="M1479.56,1548c-.72-1.69-1.44-3.39-2.15-5.08a10.1,10.1,0,0,0,1.47-2.13l1.68,3.38C1480.23,1545.46,1479.89,1546.74,1479.56,1548Z" transform="translate(-1380 -1380)"/><path class="cls-1" d="M1525.19,1551.36c.26.12.45-.07.67-.14.66-.23,1.31-1.09,1.9-.73a6.59,6.59,0,0,1,2.62,2.27l-5.57,0-.06-1c.19-.09.45-.09.45-.39Z" transform="translate(-1380 -1380)"/><path class="cls-5" d="M1506.46,1486.09a1.56,1.56,0,0,1,.89,1.05q1.73,5,3.41,10a1.8,1.8,0,0,1,0,.47c-.63-.42-.52-1.19-.86-1.75,0-.14-.07-.28-.11-.42q-1.32-3.76-2.65-7.52c-.17-.48-.21-1-.66-1.38a.48.48,0,0,0-.07-.2Z" transform="translate(-1380 -1380)"/><path class="cls-5" d="M1511.24,1499.07c.86.69.9,1.78,1.28,2.7.91,2.13,1.75,4.3,2.63,6.44a1.85,1.85,0,0,1,.2.92c-1.18-1.63-1.66-3.58-2.44-5.39-.56-1.31-1.07-2.65-1.61-4Z" transform="translate(-1380 -1380)"/><path class="cls-10" d="M1511.24,1499.07l.06.69c-1.07.6-1.81,1.73-3.12,1.94l0,0a24,24,0,0,0,2.86-2.84l.27.24Z" transform="translate(-1380 -1380)"/><path class="cls-5" d="M1515.35,1509.13a12.43,12.43,0,0,1,1.92,4.56A13.8,13.8,0,0,1,1515.35,1509.13Z" transform="translate(-1380 -1380)"/><path class="cls-10" d="M1509.82,1495.44c0,.14.08.28.11.42a5.25,5.25,0,0,1-3,1.45A14.43,14.43,0,0,1,1509.82,1495.44Z" transform="translate(-1380 -1380)"/><path class="cls-10" d="M1501.68,1488.48c-.14.32-.45.58-.73.44-.84-.45-1.32.18-1.91.52h0l.43-1.17a6.62,6.62,0,0,0,2.21.21Z" transform="translate(-1380 -1380)"/><path class="cls-10" d="M1506.44,1486.34a.48.48,0,0,1,.07.2c-.68.45-1.72,0-2.2,1-.21-.52,0-.79.19-1.19A3.46,3.46,0,0,0,1506.44,1486.34Z" transform="translate(-1380 -1380)"/><path class="cls-5" d="M1517.26,1513.69a2.29,2.29,0,0,1,1,1.92A3,3,0,0,1,1517.26,1513.69Z" transform="translate(-1380 -1380)"/><path class="cls-10" d="M1499,1489.44c-.59.9-1.19.26-1.79-.08l1.79.08Z" transform="translate(-1380 -1380)"/><path class="cls-10" d="M1501.92,1488.24c.22-1.13,1.06-.59,1.68-.61a3.53,3.53,0,0,0-1.68.61Z" transform="translate(-1380 -1380)"/><path class="cls-5" d="M1511.27,1499.06l-.27-.24a2.65,2.65,0,0,1-.21-1.21A1.49,1.49,0,0,1,1511.27,1499.06Z" transform="translate(-1380 -1380)"/><path class="cls-5" d="M1520.89,1520.86l-.46.27c0-.4,0-.8,0-1.2C1520.83,1520.09,1520.9,1520.45,1520.89,1520.86Z" transform="translate(-1380 -1380)"/><path class="cls-5" d="M1518.71,1516.57a1.17,1.17,0,0,1,.48,1A.81.81,0,0,1,1518.71,1516.57Z" transform="translate(-1380 -1380)"/><path class="cls-5" d="M1506,1485.83v-.47a.69.69,0,0,1,.47.73Z" transform="translate(-1380 -1380)"/><path class="cls-5" d="M1519.43,1518c.3.16.25.45.24.72A.62.62,0,0,1,1519.43,1518Z" transform="translate(-1380 -1380)"/><path class="cls-5" d="M1518.23,1515.61a.43.43,0,0,1,.24.48C1518.22,1516,1518.2,1515.82,1518.23,1515.61Z" transform="translate(-1380 -1380)"/><path class="cls-5" d="M1518.47,1516.09a.43.43,0,0,1,.24.48C1518.45,1516.5,1518.44,1516.3,1518.47,1516.09Z" transform="translate(-1380 -1380)"/><path class="cls-5" d="M1519.19,1517.53a.43.43,0,0,1,.24.48C1519.17,1517.94,1519.15,1517.75,1519.19,1517.53Z" transform="translate(-1380 -1380)"/><path class="cls-5" d="M1519.66,1518.72a.44.44,0,0,1,.25.49A.52.52,0,0,1,1519.66,1518.72Z" transform="translate(-1380 -1380)"/><path class="cls-5" d="M1520.15,1519.45a.43.43,0,0,1,.24.48C1520.13,1519.86,1520.11,1519.67,1520.15,1519.45Z" transform="translate(-1380 -1380)"/><path class="cls-10" d="M1507.93,1501.93l-.27.17-.07-.09.32-.1Z" transform="translate(-1380 -1380)"/><path class="cls-6" d="M1525.2,1551.36c0,.3-.26.3-.45.39l-.06-.43C1524.87,1551.3,1525.05,1551.14,1525.2,1551.36Z" transform="translate(-1380 -1380)"/><path class="cls-10" d="M1508.18,1501.7l-.25.23,0,0,.23-.24Z" transform="translate(-1380 -1380)"/><path class="cls-5" d="M1519.9,1519.21l.25.24Z" transform="translate(-1380 -1380)"/><path class="cls-10" d="M1501.92,1488.24l-.24.24h0l.24-.24Z" transform="translate(-1380 -1380)"/><path class="cls-6" d="M1517,1566.75c-1.1-.1-2.21-.21-3.32-.29a3.77,3.77,0,0,1-1.93-.86c-.93-.67-1.85-1.38-2.8-2a3,3,0,0,0-3.75-.11,2,2,0,0,1-.66.2,7.45,7.45,0,0,0-1.72-1.82,2.83,2.83,0,0,0-3.84-.23c-.83.54-1.64,1.14-2.45,1.73a14.69,14.69,0,0,1-3.92,2.25,89,89,0,0,1-17.7-4.34,36.78,36.78,0,0,0-10.09-2.24c-1.35-.1-2.7-.2-4.06-.21-2.62,0-5.21.38-7.83.61a16,16,0,0,1,4.58-1.28,42.6,42.6,0,0,1,8.21-.52,83.71,83.71,0,0,1,16.8,2.69,22.64,22.64,0,0,0,7.83.23c2.77-.26,5.49-.89,8.28-1,3.56-.16,6.9,1,10.31,1.75a40.5,40.5,0,0,0,12.57.69c4.35-.39,8.47-1.78,12.71-2.64s8.26-1.57,12.46-2a27.36,27.36,0,0,1,8.52.53,7.1,7.1,0,0,1,1,.32c.1,0,.16.15.24.25-5.84-.37-11.44.94-17,2.16-7.12,1.55-14,3.77-21,5.89C1518,1566.6,1517.49,1566.65,1517,1566.75Z" transform="translate(-1380 -1380)"/><path class="cls-1" d="M1536.16,1552.5a66.21,66.21,0,0,0-8.12-2.42c2.49-1.09,4.61-2.44,7-3.25a11.6,11.6,0,0,0,6,.63c1.8-.2,2.12-1.22,1-2.61a1.87,1.87,0,0,0-1.07-.71c.64-.83,1.24-.85,2.07-.15a59,59,0,0,0,8.65,6.16.85.85,0,0,1,.48.5,23.57,23.57,0,0,0-4.95.65A78.37,78.37,0,0,1,1536.16,1552.5Z" transform="translate(-1380 -1380)"/><path class="cls-9" d="M1492.63,1565.59a14.69,14.69,0,0,0,3.92-2.25c.81-.59,1.62-1.19,2.45-1.73a2.83,2.83,0,0,1,3.84.23,7.45,7.45,0,0,1,1.72,1.82c-1.16,1.66-2.34,3.42-4.21,4.24a7,7,0,0,1-4.9-.11,4.31,4.31,0,0,0-2.52-.46c-.42.11-.34-.32-.37-.58S1492.61,1566,1492.63,1565.59Z" transform="translate(-1380 -1380)"/><path class="cls-1" d="M1460.73,1550.89a19.23,19.23,0,0,1,4.94-2c1,.39,1.74,1.27,2.89,1.26h0c0,.37.19.42.48.24h0c-.12.28.07.25.24.24.07.26.22.5-.28.51-2.66,0-5.32.12-8,.19C1460.63,1551.36,1460.47,1551.26,1460.73,1550.89Z" transform="translate(-1380 -1380)"/><path class="cls-1" d="M1542.48,1537.68c-.16,1.54-.27,3.08-.49,4.61-.15,1-1.15,1-1.91,1.25a15.44,15.44,0,0,0-7.35-2.8,27.53,27.53,0,0,0,1.24-4c.16-1,.38-2.15-.61-3l1.45-.68A14.89,14.89,0,0,0,1542.48,1537.68Z" transform="translate(-1380 -1380)"/><path class="cls-2" d="M1511.08,1483.65c0-.35.18-.51.54-.39a21.65,21.65,0,0,0,5.39,1.18.7.7,0,0,1,.53.43c.5,3.51,2,6.7,3.06,10,.39,1.28,1.14,2.48,1,3.9-.45-.08-.42-.77-.95-.74h0a.91.91,0,0,0-.48-1h0l-.24-.24h0a.4.4,0,0,0-.24-.48h0l-.24-.24h0a.44.44,0,0,0-.24-.48h0l-.25-.24h0a.41.41,0,0,0-.24-.48h0l-.24-.24h0a.41.41,0,0,0-.24-.48h0l-.24-.24h0a.41.41,0,0,0-.24-.48h0l-.24-.24h0a.41.41,0,0,0-.24-.48h0l-.24-.24h0a.41.41,0,0,0-.24-.48h0l-.24-.24h0a.42.42,0,0,0-.24-.48h0l-.25-.24h0a.44.44,0,0,0-.24-.48h0c0-.27-.16-.49-.49-.48h0l0-.44c.54-1.31.19-2.62.19-3.93h-.48v3.49c-.21-.19-.25-.57-.64-.55h0a.41.41,0,0,0-.24-.48h0a.86.86,0,0,0-.49-.72h0l-.24-.24h0a.23.23,0,0,0-.24-.24h0a.38.38,0,0,0-.24-.48h0a.86.86,0,0,0-.49-.72h0a1,1,0,0,0-.49-.73h0c-.06-.27-.17-.48-.49-.48h0c0-.41,0-.78-.48-1Z" transform="translate(-1380 -1380)"/><path class="cls-8" d="M1542.48,1537.68a14.89,14.89,0,0,1-7.67-4.56,4.09,4.09,0,0,0,1.18-1.61,17.34,17.34,0,0,1,7.47.68C1543.13,1534,1542.81,1535.85,1542.48,1537.68Z" transform="translate(-1380 -1380)"/><path class="cls-1" d="M1543.46,1532.19a17.34,17.34,0,0,0-7.47-.68v-.38a72,72,0,0,1,7.08-5.21,2.2,2.2,0,0,1,3,.72c-1.29,1.12-1.67,2.71-2.18,4.23C1543.77,1531.31,1543.61,1531.75,1543.46,1532.19Z" transform="translate(-1380 -1380)"/><path class="cls-5" d="M1501.2,1483.2a1.3,1.3,0,0,1-1.91-1.25c0-1.26,0-2.53,0-3.79,0-.32.07-.71-.47-.47l0,0c.23-.54.32-1.18,1-1.44v0c-.36,2,.25,4-.07,6h.3v-2.84c0-.48-.08-1,.47-1.25l0,0c0,1.37,0,2.74,0,4.12C1500.46,1482.81,1500.5,1483.26,1501.2,1483.2Z" transform="translate(-1380 -1380)"/><path class="cls-5" d="M1505.28,1483.68c-.82-1-.69-2.21-.75-3.36-.53-.41-1.11-.19-1.64-.23-.71-.06-1,.29-1,1a1.78,1.78,0,0,1-.48,1.64c0-.9.46-1.78,0-2.74,1-.13,2-.27,2.91-.36.29,0,.67.13.6.43C1504.66,1481.31,1505.31,1482.46,1505.28,1483.68Z" transform="translate(-1380 -1380)"/><path class="cls-5" d="M1507.67,1476a15.91,15.91,0,0,0-5.42-.13c-.5,0-1,.1-1.53.12h0c2-.87,4.06-.72,6.14-.7l-.14-1a2.19,2.19,0,0,1,1,1.68Z" transform="translate(-1380 -1380)"/><path class="cls-1" d="M1530.68,1533.34c-1,.21-1.22,1.27-2,1.83-.3-1.15.3-2.17.12-3.21Z" transform="translate(-1380 -1380)"/><path class="cls-1" d="M1532.17,1513.69c.31-.07.34-.52.7-.5a27.52,27.52,0,0,0-.23,5.13h-.26C1531.93,1516.79,1532.25,1515.23,1532.17,1513.69Z" transform="translate(-1380 -1380)"/><path class="cls-5" d="M1500.47,1478.15c1.37-.86,3-.7,4.45-.94a5.9,5.9,0,0,1,1.77.08c-2.09.21-4.14.59-6.2.88Z" transform="translate(-1380 -1380)"/><path class="cls-1" d="M1526.42,1484c.43.63,1.48,1,.78,2.09-.36,0-.76.09-1-.23Z" transform="translate(-1380 -1380)"/><path class="cls-5" d="M1522.09,1499.77c.54.28.52.8.66,1.45-.63-.45-1-.85-.9-1.47l0,0Z" transform="translate(-1380 -1380)"/><path class="cls-5" d="M1520.65,1498.07c.53,0,.5.66.95.74h0l.29.92,0,0C1521.05,1499.48,1520.92,1498.72,1520.65,1498.07Z" transform="translate(-1380 -1380)"/><path class="cls-5" d="M1514.41,1488.71c.39,0,.43.36.64.55,0,.12.08.25.11.38l0,0A1,1,0,0,1,1514.41,1488.71Z" transform="translate(-1380 -1380)"/><path class="cls-5" d="M1520.17,1497.11a.91.91,0,0,1,.48,1A.81.81,0,0,1,1520.17,1497.11Z" transform="translate(-1380 -1380)"/><path class="cls-5" d="M1526.17,1506.71a.89.89,0,0,1,.48,1l0,0a.89.89,0,0,1-.48-1Z" transform="translate(-1380 -1380)"/><path class="cls-5" d="M1511.05,1483.67c.44.18.5.55.48,1C1511.08,1484.46,1511,1484.09,1511.05,1483.67Z" transform="translate(-1380 -1380)"/><path class="cls-5" d="M1527.59,1509.37a.89.89,0,0,1-.48-1l0,0a.91.91,0,0,1,.49,1Z" transform="translate(-1380 -1380)"/><path class="cls-5" d="M1529.75,1513.21a.89.89,0,0,1-.48-1l0,0a.89.89,0,0,1,.48,1Z" transform="translate(-1380 -1380)"/><path class="cls-2" d="M1521.88,1499.72l-.29-.92c.49.16.49.57.5,1Z" transform="translate(-1380 -1380)"/><path class="cls-5" d="M1524.25,1503.58c.24.14.44.29.36.63-.49,0-.32-.38-.39-.6Z" transform="translate(-1380 -1380)"/><path class="cls-5" d="M1525.91,1506.49c-.2-.15-.51-.25-.31-.62.45,0,.27.38.33.6Z" transform="translate(-1380 -1380)"/><path class="cls-5" d="M1512,1485.1a1,1,0,0,1,.49.73C1512,1485.82,1512,1485.47,1512,1485.1Z" transform="translate(-1380 -1380)"/><path class="cls-5" d="M1500.72,1476c-.25.35-.62.21-1,.25v0c.25-.34.62-.21,1-.23Z" transform="translate(-1380 -1380)"/><path class="cls-5" d="M1511.53,1484.63c.32,0,.43.21.49.48A.42.42,0,0,1,1511.53,1484.63Z" transform="translate(-1380 -1380)"/><path class="cls-5" d="M1513.69,1487.51a.86.86,0,0,1,.49.72A.65.65,0,0,1,1513.69,1487.51Z" transform="translate(-1380 -1380)"/><path class="cls-5" d="M1528.47,1510.58l-.14.12-.14-.22c.06,0,.13-.08.18-.06S1528.44,1510.52,1528.47,1510.58Z" transform="translate(-1380 -1380)"/><path class="cls-5" d="M1512.49,1485.83a.86.86,0,0,1,.49.72A.66.66,0,0,1,1512.49,1485.83Z" transform="translate(-1380 -1380)"/><path class="cls-5" d="M1515.37,1490.15c.33,0,.44.21.49.48A.42.42,0,0,1,1515.37,1490.15Z" transform="translate(-1380 -1380)"/><path class="cls-5" d="M1532.38,1518.31h.26v.66C1532.39,1518.82,1532.39,1518.57,1532.38,1518.31Z" transform="translate(-1380 -1380)"/><path class="cls-5" d="M1505.52,1484.4c-.28-.17-.24-.45-.24-.72C1505.57,1483.85,1505.52,1484.14,1505.52,1484.4Z" transform="translate(-1380 -1380)"/><path class="cls-5" d="M1507.91,1476.73c-.27-.18-.23-.46-.24-.72h0c.27.17.23.45.24.71Z" transform="translate(-1380 -1380)"/><path class="cls-5" d="M1529.77,1513.19a.5.5,0,0,1,.24.48l0,0a.51.51,0,0,1-.24-.48Z" transform="translate(-1380 -1380)"/><path class="cls-5" d="M1517.29,1492.79a.41.41,0,0,1,.24.48A.44.44,0,0,1,1517.29,1492.79Z" transform="translate(-1380 -1380)"/><path class="cls-5" d="M1506,1485.36a.47.47,0,0,1-.24-.48A.46.46,0,0,1,1506,1485.36Z" transform="translate(-1380 -1380)"/><path class="cls-5" d="M1530.23,1514.17a.51.51,0,0,1-.24-.48l0,0a.51.51,0,0,1,.24.48Z" transform="translate(-1380 -1380)"/><path class="cls-5" d="M1518.73,1495a.41.41,0,0,1,.24.48A.44.44,0,0,1,1518.73,1495Z" transform="translate(-1380 -1380)"/><path class="cls-5" d="M1519.21,1495.67a.44.44,0,0,1,.24.48A.44.44,0,0,1,1519.21,1495.67Z" transform="translate(-1380 -1380)"/><path class="cls-5" d="M1519.69,1496.39a.4.4,0,0,1,.24.48A.42.42,0,0,1,1519.69,1496.39Z" transform="translate(-1380 -1380)"/><path class="cls-5" d="M1531,1515.35c.06.09.12.18.17.27s-.06.05-.09.07l-.1-.32Z" transform="translate(-1380 -1380)"/><path class="cls-5" d="M1501.44,1482.72l0,.23-.27.25A.47.47,0,0,1,1501.44,1482.72Z" transform="translate(-1380 -1380)"/><path class="cls-5" d="M1531.66,1516.81a.5.5,0,0,1-.23-.48l0,0a.51.51,0,0,1,.24.48Z" transform="translate(-1380 -1380)"/><path class="cls-5" d="M1517.77,1493.51a.41.41,0,0,1,.24.48A.44.44,0,0,1,1517.77,1493.51Z" transform="translate(-1380 -1380)"/><path class="cls-5" d="M1531.69,1516.79c.06.09.12.18.17.27l-.09.07c0-.11-.07-.21-.1-.32Z" transform="translate(-1380 -1380)"/><path class="cls-5" d="M1513,1486.55a.38.38,0,0,1,.24.48A.44.44,0,0,1,1513,1486.55Z" transform="translate(-1380 -1380)"/><path class="cls-5" d="M1505.76,1484.88a.47.47,0,0,1-.24-.48A.46.46,0,0,1,1505.76,1484.88Z" transform="translate(-1380 -1380)"/><path class="cls-5" d="M1529.27,1512.25a.52.52,0,0,1-.25-.48l0,0a.53.53,0,0,1,.24.49Z" transform="translate(-1380 -1380)"/><path class="cls-5" d="M1514.17,1488.23a.41.41,0,0,1,.24.48A.44.44,0,0,1,1514.17,1488.23Z" transform="translate(-1380 -1380)"/><path class="cls-5" d="M1515.34,1489.71l0,.44a.44.44,0,0,1-.24-.48l0,0A.75.75,0,0,1,1515.34,1489.71Z" transform="translate(-1380 -1380)"/><path class="cls-5" d="M1515.85,1490.63a.44.44,0,0,1,.24.48A.44.44,0,0,1,1515.85,1490.63Z" transform="translate(-1380 -1380)"/><path class="cls-1" d="M1528.76,1531.94l-.43-.26Z" transform="translate(-1380 -1380)"/><path class="cls-5" d="M1516.33,1491.35a.42.42,0,0,1,.24.48A.44.44,0,0,1,1516.33,1491.35Z" transform="translate(-1380 -1380)"/><path class="cls-5" d="M1518.25,1494.23a.41.41,0,0,1,.24.48A.44.44,0,0,1,1518.25,1494.23Z" transform="translate(-1380 -1380)"/><path class="cls-5" d="M1516.81,1492.07a.41.41,0,0,1,.24.48A.44.44,0,0,1,1516.81,1492.07Z" transform="translate(-1380 -1380)"/><path class="cls-5" d="M1526.15,1506.73l-.24-.24,0,0,.24.24Z" transform="translate(-1380 -1380)"/><path class="cls-5" d="M1526.65,1507.67l.1.12-.12-.1Z" transform="translate(-1380 -1380)"/><path class="cls-5" d="M1525,1504.79l.09.12-.12-.1Z" transform="translate(-1380 -1380)"/><path class="cls-5" d="M1516.57,1491.83l.24.24Z" transform="translate(-1380 -1380)"/><path class="cls-5" d="M1517.05,1492.55l.24.24Z" transform="translate(-1380 -1380)"/><path class="cls-5" d="M1524.94,1504.81l-.09-.12.12.1Z" transform="translate(-1380 -1380)"/><path class="cls-5" d="M1524.22,1503.61l-.09-.12.12.1Z" transform="translate(-1380 -1380)"/><path class="cls-5" d="M1516.09,1491.11l.25.24Z" transform="translate(-1380 -1380)"/><path class="cls-5" d="M1527.11,1508.41l-.1-.12.12.1Z" transform="translate(-1380 -1380)"/><path class="cls-5" d="M1527.62,1509.35l.09.12-.12-.1Z" transform="translate(-1380 -1380)"/><path class="cls-5" d="M1529,1511.77l-.09-.12.12.09Z" transform="translate(-1380 -1380)"/><path class="cls-5" d="M1517.53,1493.27l.24.24Z" transform="translate(-1380 -1380)"/><path class="cls-5" d="M1513.45,1487.27l.24.24Z" transform="translate(-1380 -1380)"/><path class="cls-5" d="M1513.21,1487a.23.23,0,0,1,.24.24Z" transform="translate(-1380 -1380)"/><path class="cls-5" d="M1519.93,1496.87l.24.24Z" transform="translate(-1380 -1380)"/><path class="cls-5" d="M1531.43,1516.33l-.1-.12.12.1Z" transform="translate(-1380 -1380)"/><path class="cls-5" d="M1531,1515.37l-.1-.12.12.1Z" transform="translate(-1380 -1380)"/><path class="cls-5" d="M1519.45,1496.15l.24.24Z" transform="translate(-1380 -1380)"/><path class="cls-5" d="M1519,1495.43l.25.24Z" transform="translate(-1380 -1380)"/><path class="cls-5" d="M1530.25,1514.15l.09.12-.11-.1Z" transform="translate(-1380 -1380)"/><path class="cls-5" d="M1518.49,1494.71l.24.24Z" transform="translate(-1380 -1380)"/><path class="cls-5" d="M1518,1494l.24.24Z" transform="translate(-1380 -1380)"/><path class="cls-4" d="M1507.93,1476.71c0-.26,0-.54-.24-.71a2.19,2.19,0,0,0-1-1.68h0c-.13-.55-1-.38-1-1.18a11.1,11.1,0,0,0-.13-2.7,21.58,21.58,0,0,0-1.76-6c-.32-.55-.64-.56-1,0-1,.64-.75,1.63-.62,2.53a17.92,17.92,0,0,1,.64,4.19c-1.16-.1-2-.93-3.12-1.2l-.25-.23a.2.2,0,0,0,0-.08s0,0-.06,0l.1.1.23.25a4.71,4.71,0,0,0,3.13,1.9c0,1.67,0,1.68-1.59,1.69a2.63,2.63,0,0,0-1.77.48h0a.46.46,0,0,0-.48.24h0l-.24.24h0l-.5.25c-.63,0-1-.76-1.63-.7a1.09,1.09,0,0,0-1-1,1.55,1.55,0,0,1,.26-1l.21-.33,0,0a3.6,3.6,0,0,0,.41-5.13c-.59-.79-1-1.69-1.65-2.46a2.76,2.76,0,0,1-.41-2.89c.53.26,1,.55,1.58.78a2.82,2.82,0,0,0,3.58-.88c-3.07.5-3.11.5-4.83-.48l.4-.31a7,7,0,0,1,3.38-.24c-.7-.7-1.37-.42-2-.51,2.28-1.12,3.08-2.83,2.45-5.36-.49-1.92.5-3.39,2.09-4.44.92-.6,1.91-1.11,2.86-1.66,1.39.31,2.5,1.6,4.1,1.13,4,1.72,5.85,4.84,6,9.07a1.34,1.34,0,0,0,.87,1.36,2.61,2.61,0,0,1,1.77,3,2.68,2.68,0,0,1-2.26,2.3,1,1,0,0,0-.89.92,15.21,15.21,0,0,1-3.9,7.38,1.83,1.83,0,0,0-.62,1.47c0,1.11,0,2.22,0,3.43C1508.48,1477.82,1508.55,1477,1507.93,1476.71Zm6-12.37c1.23-.18,1.65-.48,1.85-1.31a1.85,1.85,0,0,0-.66-2c-.68-.52-1.1-.4-1.17.48S1514,1463.38,1514,1464.34Zm-1.94-5.49c-1.09-1.22-3.44-1.62-4.33-.74A5.81,5.81,0,0,0,1512,1458.85Zm-4.9,2.59c1.37,1.85,2.82,1.78,5.71-.32C1511,1461.62,1509.1,1462.79,1507.11,1461.44Z" transform="translate(-1380 -1380)"/><path class="cls-11" d="M1504.47,1435.07a6.61,6.61,0,0,1,5.39-.76c2.3.74,2.9,2.75,3.33,4.84a16.93,16.93,0,0,1-.33,6.5c-.57,3.16,0,4.19,3,5.44,4.07,1.72,5.39,4.4,5.71,8.09a7.35,7.35,0,0,1-.58,3.27,21.12,21.12,0,0,1,.19-3.06,8.47,8.47,0,0,0-5.66-7.8c-3.11-1.09-3.89-2.53-3.33-5.75.49-2.78.94-5.54,0-8.37a4.19,4.19,0,0,0-4.86-2.82Z" transform="translate(-1380 -1380)"/><path class="cls-11" d="M1490.46,1450.83a.52.52,0,0,1-.54.2c0-1.54-.56-3-.5-4.59a8.86,8.86,0,0,1,.81-3.45,3.7,3.7,0,0,1,4.18-2.12,20.67,20.67,0,0,1,3.21.81c-.26.37-.64.22-1,.24-3.53-1.61-6.13-.24-6.52,3.38A25.51,25.51,0,0,0,1490.46,1450.83Z" transform="translate(-1380 -1380)"/><path class="cls-11" d="M1486.33,1455.33a.49.49,0,0,1,.22.51c-2.82,1.68-3.8,4.22-3.34,7.5C1481.8,1461.31,1483.38,1457.42,1486.33,1455.33Z" transform="translate(-1380 -1380)"/><path class="cls-1" d="M1462.12,1540.79c-.59-1.76-1.17-3.51-1.75-5.27a17,17,0,0,0,9.43-3.32.77.77,0,0,1,1.15.06.88.88,0,0,1-.27.76A73.29,73.29,0,0,1,1462.12,1540.79Z" transform="translate(-1380 -1380)"/><path class="cls-1" d="M1471.88,1529.73l-2.66-2.88a19.29,19.29,0,0,0,3.88-5.73A48.93,48.93,0,0,1,1471.88,1529.73Z" transform="translate(-1380 -1380)"/><path class="cls-8" d="M1482.67,1524.3a16.08,16.08,0,0,1-.71,4.82.4.4,0,0,1-.42.34Q1482.1,1526.88,1482.67,1524.3Z" transform="translate(-1380 -1380)"/><path class="cls-3" d="M1468.56,1550.16c-1.15,0-1.92-.87-2.89-1.26l.5-.26C1466.93,1549.2,1468,1549.36,1468.56,1550.16Z" transform="translate(-1380 -1380)"/><path class="cls-1" d="M1548.43,1527.12c2.64.48,5.23,1.3,8,1.23l1.31,0q-.46,3.69-.91,7.37a1.09,1.09,0,0,1-.68,1q-6.67,2.85-13.32,5.73c-.06,0-.15,0-.44,0,1-1.42,1.6-3,2.73-4.28a7.35,7.35,0,0,0,4.45.07c1.28-.33,1.53-1.22.65-2.23a6.76,6.76,0,0,0-3-2.09c.39-1.2.8-2.39,1.16-3.59A5.33,5.33,0,0,0,1548.43,1527.12Z" transform="translate(-1380 -1380)"/><path class="cls-8" d="M1532.73,1540.74a15.44,15.44,0,0,1,7.35,2.8l-6.48,3.26c-.24-.52-.8-.46-1.2-.66-.59-.29-1.31-.36-1.68-1A40.34,40.34,0,0,1,1532.73,1540.74Z" transform="translate(-1380 -1380)"/><path class="cls-8" d="M1547.18,1533.85a6.76,6.76,0,0,1,3,2.09c.88,1,.63,1.9-.65,2.23a7.35,7.35,0,0,1-4.45-.07A30.5,30.5,0,0,1,1547.18,1533.85Z" transform="translate(-1380 -1380)"/><path class="cls-8" d="M1540.92,1544.14a1.87,1.87,0,0,1,1.07.71c1.14,1.39.82,2.41-1,2.61a11.6,11.6,0,0,1-6-.63A21.6,21.6,0,0,1,1540.92,1544.14Z" transform="translate(-1380 -1380)"/><path class="cls-1" d="M1530.72,1545.13c.37.65,1.09.72,1.68,1,.4.2,1,.14,1.2.66l-5.34,2.65-.23-.17C1529,1547.94,1529.53,1546.35,1530.72,1545.13Z" transform="translate(-1380 -1380)"/><path class="cls-1" d="M1528.55,1540.78c-.28-.1-.63.11-.92-.24a6.75,6.75,0,0,1,1.42-1.9A3.44,3.44,0,0,1,1528.55,1540.78Z" transform="translate(-1380 -1380)"/><path class="cls-1" d="M1529,1538.65l.2-.21C1529.22,1538.56,1529.21,1538.69,1529,1538.65Z" transform="translate(-1380 -1380)"/><path class="cls-1" d="M1477.29,1486.78c-3.15,1.71-3.94,4.67-4.19,7.91a28.35,28.35,0,0,0-4.77-2,17.92,17.92,0,0,0-2.24-10.38,3.3,3.3,0,0,1-.16-.56,76.29,76.29,0,0,0,9.23,1.66,1.31,1.31,0,0,1,1.28,1C1476.69,1485.23,1477,1486,1477.29,1486.78Z" transform="translate(-1380 -1380)"/><path class="cls-1" d="M1480.36,1485.61l-2.47.86c-1.43-2.31-1.34-4.37,1-6.1a7.85,7.85,0,0,0,1-1l0,0A10.07,10.07,0,0,0,1480.36,1485.61Z" transform="translate(-1380 -1380)"/><path class="cls-1" d="M1482.1,1476.26l.44.25c-.34.8-.7,1.59-1.74,1.65l0,0Z" transform="translate(-1380 -1380)"/><path class="cls-1" d="M1480.26,1478.81l.3-.4h0a.46.46,0,0,1-.24.48Z" transform="translate(-1380 -1380)"/><path class="cls-1" d="M1468.43,1465.33l.07.27-.23-.11Z" transform="translate(-1380 -1380)"/><path class="cls-1" d="M1480.05,1479.09l.21-.28.06.07-.24.24Z" transform="translate(-1380 -1380)"/><path class="cls-1" d="M1462.42,1452.62l.08.24-.21-.11Z" transform="translate(-1380 -1380)"/><path class="cls-1" d="M1479.82,1479.34l.23-.25,0,0-.24.24Z" transform="translate(-1380 -1380)"/><path class="cls-1" d="M1480.56,1478.41l.22-.27,0,0-.24.24Z" transform="translate(-1380 -1380)"/><path class="cls-1" d="M1475.63,1482.61l.06.26-.21-.1Z" transform="translate(-1380 -1380)"/><path class="cls-5" d="M1480.56,1478.4l.24-.24c1-.06,1.4-.85,1.74-1.65a12.39,12.39,0,0,0,8.47.23,10.81,10.81,0,0,0,4.68-3.62,1.07,1.07,0,0,1,1,1l0,.88c.11.66-.53,1.48.41,2l0,0c-.07.89-1,1.38-1.1,2.26a3,3,0,0,0,1.32.12l0,0a1.61,1.61,0,0,0-.76,1.24,3.51,3.51,0,0,1-2.11,3,10,10,0,0,1-3.64,1c-3.51.29-7,.44-10.5,1a10.07,10.07,0,0,1-.52-6.25l.24-.24.24-.24A.46.46,0,0,0,1480.56,1478.4Z" transform="translate(-1380 -1380)"/><path class="cls-5" d="M1490.46,1450.83a25.51,25.51,0,0,1-.34-5.53c.39-3.62,3-5,6.52-3.38-.05.58-.59.74-.94,1a4.48,4.48,0,0,0-2,4.62C1494,1449.28,1492.5,1450.75,1490.46,1450.83Z" transform="translate(-1380 -1380)"/><path class="cls-12" d="M1504,1448.2c-1,.55-1.94,1.06-2.86,1.66-1.59,1.05-2.58,2.52-2.09,4.44.63,2.53-.17,4.24-2.45,5.36-.37,0-.7.33-1.1.17,0-.07.07-.17.13-.2,2.52-1.38,2.44-3.67,2.1-6-.38-2.67.48-4.15,3.06-5C1501.86,1448.24,1502.9,1447.76,1504,1448.2Z" transform="translate(-1380 -1380)"/><path class="cls-12" d="M1494.49,1461.3a2.76,2.76,0,0,0,.41,2.89c.62.77,1.06,1.67,1.65,2.46a3.6,3.6,0,0,1-.41,5.13,7.62,7.62,0,0,0-1.39-4.46,19.14,19.14,0,0,1-1.55-2.81,2.56,2.56,0,0,1,.65-3.42C1494.08,1461.11,1494.33,1461.07,1494.49,1461.3Z" transform="translate(-1380 -1380)"/><path class="cls-5" d="M1495.19,1455.11c.84-1.49.39-3,.14-4.53a10.41,10.41,0,0,1,.38-5.28,1.4,1.4,0,0,1,1.08-1.12,8.76,8.76,0,0,0-1.09,5.5,24,24,0,0,1,.46,3.88c0,.69-.07,1.38-.94,1.58Z" transform="translate(-1380 -1380)"/><path class="cls-13" d="M1494.49,1461.3c-.16-.23-.41-.19-.64-.21a.82.82,0,0,1,.57-.47l.4.1c1.72,1,1.76,1,4.83.48a2.82,2.82,0,0,1-3.58.88C1495.53,1461.85,1495,1461.56,1494.49,1461.3Z" transform="translate(-1380 -1380)"/><path class="cls-5" d="M1490.63,1458a1.51,1.51,0,0,1,.93-1.15c1.19-.61,2.41-1.16,3.63-1.73l0,0a.7.7,0,0,1-.43.66,20.07,20.07,0,0,0-4.14,2.21Z" transform="translate(-1380 -1380)"/><path class="cls-5" d="M1502.4,1443.84a3,3,0,0,1-1.51-.27,6.24,6.24,0,0,0-4,.36,4.67,4.67,0,0,1,5.55-.09Z" transform="translate(-1380 -1380)"/><path class="cls-14" d="M1495.54,1459.83c.4.16.73-.14,1.1-.17.59.09,1.26-.19,2,.51a7,7,0,0,0-3.38.24l-.06-.29,0,0,.28-.26Z" transform="translate(-1380 -1380)"/><path class="cls-5" d="M1489.85,1458.83c.17,0,.26.06.22.19a.34.34,0,0,1-.19.23c-.14.06-.19-.07-.16-.18A.78.78,0,0,1,1489.85,1458.83Z" transform="translate(-1380 -1380)"/><path class="cls-12" d="M1495.16,1460.12l.06.29-.4.31-.4-.1A.88.88,0,0,1,1495.16,1460.12Z" transform="translate(-1380 -1380)"/><path class="cls-5" d="M1502.4,1443.84l.32.09-.06.09-.26-.18Z" transform="translate(-1380 -1380)"/><path class="cls-5" d="M1503.6,1444.32l-.31-.09c.17-.22.22,0,.31.09Z" transform="translate(-1380 -1380)"/><path class="cls-5" d="M1503.6,1444.32l.31.09c-.17.22-.23,0-.31-.09Z" transform="translate(-1380 -1380)"/><path class="cls-12" d="M1496.16,1471.8l-.21.33Z" transform="translate(-1380 -1380)"/><path class="cls-12" d="M1495.46,1459.88l-.28.26Z" transform="translate(-1380 -1380)"/><path class="cls-5" d="M1490.65,1458l-.11.1.09-.12Z" transform="translate(-1380 -1380)"/><path class="cls-1" d="M1542.83,1457.42l-.29.06c0-.1,0-.2.07-.3Z" transform="translate(-1380 -1380)"/><path class="cls-1" d="M1528.58,1485.14s-.13.15-.15.14,0-.18,0-.26Z" transform="translate(-1380 -1380)"/><path class="cls-1" d="M1449.77,1540c0,.09.11.22.08.26s-.24,0-.36,0Z" transform="translate(-1380 -1380)"/><path class="cls-5" d="M1498.57,1477.93a.52.52,0,0,1-.24.48l0,0a.49.49,0,0,1,.25-.47Z" transform="translate(-1380 -1380)"/><path class="cls-5" d="M1497.86,1478.9l-.24.24,0,0,.24-.24Z" transform="translate(-1380 -1380)"/><path class="cls-5" d="M1498.1,1478.65l-.24.25,0,0,.24-.24Z" transform="translate(-1380 -1380)"/><path class="cls-5" d="M1498.33,1478.41l-.23.24,0,0,.24-.24Z" transform="translate(-1380 -1380)"/><path class="cls-5" d="M1497.62,1479.14a2.73,2.73,0,0,0-.25.23l0,0,.24-.24Z" transform="translate(-1380 -1380)"/><path class="cls-5" d="M1498.81,1477.69l-.24.24h0l.23-.25Z" transform="translate(-1380 -1380)"/><path class="cls-3" d="M1469,1550.4c-.29.18-.46.13-.48-.24C1468.8,1550.08,1469,1550.12,1469,1550.4Z" transform="translate(-1380 -1380)"/><path class="cls-3" d="M1469.28,1550.64c-.17,0-.36,0-.24-.24C1469.21,1550.39,1469.39,1550.37,1469.28,1550.64Z" transform="translate(-1380 -1380)"/><path class="cls-10" d="M1515.34,1489.71a.75.75,0,0,0-.18-.07c0-.13-.07-.26-.11-.38v-3.49h.48C1515.53,1487.09,1515.88,1488.4,1515.34,1489.71Z" transform="translate(-1380 -1380)"/><path class="cls-4" d="M1498.79,1477.67l-.23.25a.49.49,0,0,0-.25.47l-.24.24-.24.24-.24.24-.24.24a3,3,0,0,1-1.32-.12c.12-.88,1-1.37,1.1-2.26l.09-.11-.11.09c-.94-.48-.3-1.3-.41-2,.48.08.83.53,1.36.51l.18.1.07-.33h0a.66.66,0,0,0,.49-.71h0l.24-.24h0a.49.49,0,0,0,.48-.24h0a48.1,48.1,0,0,1,7.2.24h0l.14,1c-2.08,0-4.17-.17-6.14.7-.34,0-.71-.11-1,.23C1499.11,1476.49,1499,1477.13,1498.79,1477.67Z" transform="translate(-1380 -1380)"/><path class="cls-5" d="M1506.72,1474.32a48.1,48.1,0,0,0-7.2-.24,2.63,2.63,0,0,1,1.77-.48c1.6,0,1.6,0,1.59-1.69v-.72a17.92,17.92,0,0,0-.64-4.19c-.13-.9-.39-1.89.62-2.53l0,0a6.16,6.16,0,0,0,0,3.75,20.75,20.75,0,0,1,.48,5.27l1.91.3c-.13-1.66.14-3.18-.32-4.72a22.13,22.13,0,0,1-1.15-4.6v0a21.58,21.58,0,0,1,1.76,6,11.1,11.1,0,0,1,.13,2.7C1505.68,1473.94,1506.59,1473.77,1506.72,1474.32Z" transform="translate(-1380 -1380)"/><path class="cls-12" d="M1514,1464.34c0-1-.06-1.91,0-2.85s.49-1,1.17-.48a1.85,1.85,0,0,1,.66,2C1515.6,1463.86,1515.18,1464.16,1514,1464.34Z" transform="translate(-1380 -1380)"/><path class="cls-5" d="M1512,1458.85a5.81,5.81,0,0,1-4.33-.74C1508.57,1457.23,1510.92,1457.63,1512,1458.85Z" transform="translate(-1380 -1380)"/><path class="cls-13" d="M1507.11,1461.44c2,1.35,3.84.18,5.71-.32C1509.93,1463.22,1508.48,1463.29,1507.11,1461.44Z" transform="translate(-1380 -1380)"/><path class="cls-12" d="M1502.89,1471.19v.72a4.71,4.71,0,0,1-3.13-1.9l0,0C1500.86,1470.26,1501.73,1471.09,1502.89,1471.19Z" transform="translate(-1380 -1380)"/><path class="cls-12" d="M1498.06,1475.5c-.53,0-.88-.43-1.36-.51l0-.88c.67-.06,1,.66,1.63.7,0,.16,0,.31,0,.46h0Z" transform="translate(-1380 -1380)"/><path class="cls-5" d="M1502.87,1464.47c.33-.56.65-.55,1,0v0h-.94Z" transform="translate(-1380 -1380)"/><path class="cls-5" d="M1498.31,1475.27c0-.15,0-.3,0-.46l.5-.25A.66.66,0,0,1,1498.31,1475.27Z" transform="translate(-1380 -1380)"/><path class="cls-5" d="M1499.52,1474.08a.49.49,0,0,1-.48.24A.46.46,0,0,1,1499.52,1474.08Z" transform="translate(-1380 -1380)"/><path class="cls-12" d="M1499.52,1469.76l.25.23,0,0-.23-.25Z" transform="translate(-1380 -1380)"/><path class="cls-12" d="M1499.52,1469.76l-.1-.1s0,0,.06,0a.2.2,0,0,1,0,.08Z" transform="translate(-1380 -1380)"/><path class="cls-5" d="M1499,1474.32l-.24.24Z" transform="translate(-1380 -1380)"/><path class="cls-5" d="M1498.06,1475.5l.25-.23-.07.33Z" transform="translate(-1380 -1380)"/><path class="cls-5" d="M1497.11,1477l.11-.09-.09.11Z" transform="translate(-1380 -1380)"/><path class="cls-4" d="M1502.89,1464.49h.94a22.13,22.13,0,0,0,1.15,4.6c.46,1.54.19,3.06.32,4.72l-1.91-.3a20.75,20.75,0,0,0-.48-5.27A6.16,6.16,0,0,1,1502.89,1464.49Z" transform="translate(-1380 -1380)"/></svg>