<svg id="Layer_1" data-name="Layer 1" xmlns="http://www.w3.org/2000/svg" viewBox="0 0 225 225"><defs><style>.cls-1{fill:#fff;}</style></defs><path class="cls-1" d="M1388,1387h225v225H1388Zm116.23,126.82-4.06,2.35c1.16,3.68,2.33,7.37,3.51,11.13,11.11-5.13,14.22-5.63,16.77-2,1.2,1.73,1,4.41,1.55,7-2.46-2.94-4.15-6.65-5.88-6.67-3,0-7.2,1.37-8.93,3.65-2.49,3.28-3.21,7.89-4.69,11.94l1.19,1.13c7.48-3.1,15-5.51,22.32-.41l1,1c3.25,2.16,6.28,4.83,9.8,6.36,3.9,1.7,10.18-1.07,12.29-4.42,2.58-4.09.25-6.73-2.34-9.74,2.45,1.21,5.36,2.72,5.87,4.81,1.61,6.68-4.29,9.12-8.63,12.29l.52,1.56,17-2.12c-2.47,3.15-6.31,4.39-10.53,4.47a36.38,36.38,0,0,1-26.67-10.5c-5.37-5.12-16-4.83-21.63.59l11.34,3.61c-.69-2.17-1.22-3.85-1.75-5.5,6-2.53,8-1.36,12.14,6.86h-6a60,60,0,0,0,11.88,5.51,51.69,51.69,0,0,0,11.08,2.89,56.88,56.88,0,0,0,14.86,0c9.31-1.52,12.29-10.45,5.82-17.13a40.45,40.45,0,0,0-10.62-8.08c-5.91-3-12.52-4.56-18.42-7.55a87.53,87.53,0,0,1-17.45-11.07c-2.4-2.06-3.77-6.82-3.52-10.21.6-8.09,2.41-16.1,3.79-24.13a15.12,15.12,0,0,1,1-2.68c1.58,8.93,2.45,17.67,3.33,26.41.82,8.21,4.31,14.5,12.33,17.84,6.9,2.87,13.73,5.94,20.49,9.14,2.65,1.25,5.56,2.62,7.43,4.75,5.49,6.26,7,7,15.12,4.49.31-.1.46-.69.94-1.45h-4.14c2.16-5.84-1-11.64-6.87-10.78-7.42,1.09-11.21-3.43-16-7-4.34-3.28-8.67-7-13.63-8.9-4.27-1.64-6.19-4-7-8a41.9,41.9,0,0,1-.8-7.41c-.12-8.13.33-16.3-.23-24.4-.53-7.62-4.1-10.8-11.53-11.88-2.47-.36-5-.55-7.42-.94-4.77-.75-7.06-4.27-5.41-8.67.69-1.84,2.11-3.41,4-6.37.5,4.09.8,6.54,1.17,9.61,5.8-13.67,6.91-36.75-10.43-43.38a23.89,23.89,0,0,1-3.38,2.67c-6.19,3.34-10.33,11.37-9.41,18.31a19,19,0,0,1-.2,3.82,33.7,33.7,0,0,0,3.32,17.52c.47-2.44.94-4.87,1.62-8.42l2.25,3.63c4,6.52,2.06,10.73-5.34,11.59-2.48.28-5,.76-7.43.84-4.95.17-7.55,3.25-9,7.38a26.87,26.87,0,0,0-1.57,8.3c-.12,7.48.32,15,.17,22.44-.14,6.36-1.21,12.34-9.22,13.68a11.64,11.64,0,0,0-4.79,2.58c-4,3.2-7.74,6.88-12,9.75-2.54,1.71-5.93,3.29-8.84,3.13-7.1-.39-11.28,3.75-9.81,10.91l-4.19.4c6.49,3.26,12.14,3.36,14,0,2.67-4.72,6.65-7.08,11.54-8.83,5.16-1.84,10-4.67,15.12-6.5,10.71-3.8,15.94-11.38,16.61-22.46.07-1.17.14-2.33.25-3.49q.91-10.11,1.85-20.21a9.31,9.31,0,0,1,2.24,5.1c1.16,7.06,2.55,14.1,3.26,21.21a14.77,14.77,0,0,1-1.73,8.38c-4.24,7.35-11.77,10.38-19.19,13.52-8.23,3.48-16.71,6.64-24.33,11.19-4.56,2.72-10.49,6.42-8.14,13.74,2,6.17,8.27,9.09,17,8.5.5,0,1-.17,1.48-.2,10.81-.79,20.69-4.65,30.34-9.23l2.17-.87,12.23-4.29c-9.59-5.26-17.71-5.46-23.73.91-6.82,7.23-16,9.77-25.93,9.27-5.27-.27-7.66-1.88-9.29-5.51,5.49,3,11,4.09,17.52,1.56-5-3-10.14-5.51-8.88-11.76.45-2.22,3.38-3.94,5.18-5.89l.94,1c-5.84,6.43-4.21,11.77,4.44,13.84,5.56,1.34,10-1,13.53-5.21l-.14.15c7.63-7.19,16.15-6,25.69-1.43-.82-4.38-1.09-7.52-2-10.45-1.4-4.4-6.69-8.35-10.2-7-2.46.91-4.18,3.81-6.58,6.17.19-1.61-.36-4.49.82-5.8,5.85-6.46,11.34-1.16,18,2.24,1.31-8.85,2.49-16.76,3.66-24.67l1.41,0,4.52,10.72Zm-5.66,10.71c-3.52,5.12-3.5,8.65.06,13.9C1502.12,1533.12,1502.1,1529.23,1498.57,1524.53Z" transform="translate(-1388 -1387)"/><path d="M1468.88,1544.17c-3.55,4.22-8,6.55-13.53,5.21-8.65-2.07-10.28-7.41-4.44-13.84l-.94-1c-1.8,2-4.73,3.67-5.18,5.89-1.26,6.25,3.89,8.8,8.88,11.76-6.49,2.53-12,1.41-17.52-1.56,1.63,3.63,4,5.24,9.29,5.51,9.88.5,19.11-2,25.93-9.27,6-6.37,14.14-6.17,23.73-.91l-12.23,4.29,2.33-5.67c-6-2.78-9.49-.76-11.84,6.54h7.34c-9.65,4.58-19.53,8.44-30.34,9.23-.49,0-1,.16-1.48.2-8.7.59-15-2.33-17-8.5-2.35-7.32,3.58-11,8.14-13.74,7.62-4.55,16.1-7.71,24.33-11.19,7.42-3.14,14.95-6.17,19.19-13.52a14.77,14.77,0,0,0,1.73-8.38c-.71-7.11-2.1-14.15-3.26-21.21a9.31,9.31,0,0,0-2.24-5.1q-.93,10.1-1.85,20.21c-.11,1.16-.18,2.32-.25,3.49-.67,11.08-5.9,18.66-16.61,22.46-5.16,1.83-10,4.66-15.12,6.5-4.89,1.75-8.87,4.11-11.54,8.83-1.91,3.38-7.56,3.28-14,0l4.19-.4c-1.47-7.16,2.71-11.3,9.81-10.91,2.91.16,6.3-1.42,8.84-3.13,4.25-2.87,8-6.55,12-9.75a11.64,11.64,0,0,1,4.79-2.58c8-1.34,9.08-7.32,9.22-13.68.15-7.48-.29-15-.17-22.44a26.87,26.87,0,0,1,1.57-8.3c1.45-4.13,4.05-7.21,9-7.38,2.48-.08,5-.56,7.43-.84,7.4-.86,9.34-5.07,5.34-11.59l-2.25-3.63c-.68,3.55-1.15,6-1.62,8.42a33.7,33.7,0,0,1-3.32-17.52,19,19,0,0,0,.2-3.82c-.92-6.94,3.22-15,9.41-18.31a23.89,23.89,0,0,0,3.38-2.67c17.34,6.63,16.23,29.71,10.43,43.38-.37-3.07-.67-5.52-1.17-9.61-1.91,3-3.33,4.53-4,6.37-1.65,4.4.64,7.92,5.41,8.67,2.46.39,5,.58,7.42.94,7.43,1.08,11,4.26,11.53,11.88.56,8.1.11,16.27.23,24.4a41.9,41.9,0,0,0,.8,7.41c.77,4,2.69,6.34,7,8,5,1.89,9.29,5.62,13.63,8.9,4.81,3.62,8.6,8.14,16,7,5.83-.86,9,4.94,6.87,10.78h4.14c-.48.76-.63,1.35-.94,1.45-8.08,2.47-9.63,1.77-15.12-4.49-1.87-2.13-4.78-3.5-7.43-4.75-6.76-3.2-13.59-6.27-20.49-9.14-8-3.34-11.51-9.63-12.33-17.84-.88-8.74-1.75-17.48-3.33-26.41a15.12,15.12,0,0,0-1,2.68c-1.38,8-3.19,16-3.79,24.13-.25,3.39,1.12,8.15,3.52,10.21A87.53,87.53,0,0,0,1533,1527c5.9,3,12.51,4.58,18.42,7.55a40.45,40.45,0,0,1,10.62,8.08c6.47,6.68,3.49,15.61-5.82,17.13a56.88,56.88,0,0,1-14.86,0,51.69,51.69,0,0,1-11.08-2.89,60,60,0,0,1-11.88-5.51h6c-4.09-8.22-6.18-9.39-12.14-6.86.53,1.65,1.06,3.33,1.75,5.5l-11.34-3.61c5.67-5.42,16.26-5.71,21.63-.59a36.38,36.38,0,0,0,26.67,10.5c4.22-.08,8.06-1.32,10.53-4.47l-17,2.12-.52-1.56c4.34-3.17,10.24-5.61,8.63-12.29-.51-2.09-3.42-3.6-5.87-4.81,2.59,3,4.92,5.65,2.34,9.74-2.11,3.35-8.39,6.12-12.29,4.42-3.52-1.53-6.55-4.2-9.8-6.36l8.79-.47.22-2.21-8.16-2,5-9.65c-4,1.31-6.69,1.56-8.48,3-1.56,1.24-2.08,3.8-3.06,5.78l4.83,1.54c0,1,0,2-.08,3.06-7.36-5.1-14.84-2.69-22.32.41l-1.19-1.13c1.48-4,2.2-8.66,4.69-11.94,1.73-2.28,5.88-3.68,8.93-3.65,1.73,0,3.42,3.73,5.88,6.67-.52-2.63-.35-5.31-1.55-7-2.55-3.68-5.66-3.18-16.77,2-1.18-3.76-2.35-7.45-3.51-11.13l4-2.35c-1.59,3.68-2.33,7.25,1.16,10.33,5.9-3.08,6.53-6.09,2.94-14-1.44,1.3-2.85,2.58-4.27,3.85l-4.52-10.72-1.41,0c-1.17,7.91-2.35,15.82-3.66,24.67-6.68-3.4-12.17-8.7-18-2.24-1.18,1.31-.63,4.19-.82,5.8,2.4-2.36,4.12-5.26,6.58-6.17,3.51-1.31,8.8,2.64,10.2,7,.94,2.93,1.21,6.07,2,10.45-9.54-4.56-18.06-5.76-25.69,1.43l2.22-5.21,5-1.93c-1.16-2-1.89-4.57-3.58-5.93s-4.2-1.36-6.36-2l-1,1.12,6.15,8.87c-3.84-2.14-6.85-.68-10.2,2.53ZM1498,1487c-1.1,2.88-2.35,5.76,1.39,9,.56-2.81,1-4.9,1.36-6.83l6.63.81.75-1.59L1500,1482l4.27-5.13-.18,5.76c2.41-.69,5.35-.76,7.09-2.24s2.53-4.47,4.08-7.48l-8.46,1.4,3.52-3.69-5.77,1.31a13.17,13.17,0,0,1,5-4.74c5.76-2.84,8.58-1,9.77,5.34.53,2.79,2.45,5.31,4,8.49,1.87-3.76.42-11.55-2.31-14.34-4.53-4.63-9.64-2.78-14.6-.61-.37-1.52-.65-2.69-.93-3.86l-1.59-.47-2.94,6.37-2.32-3.18-1,.36v7.87l1.59.2,1.64-5.39c4.21,4.33-2.18,5.28-2.65,8.17l-4.59-7.67a19,19,0,0,0,2.34-2.36,49.53,49.53,0,0,0-3.89-4.33l-1,.83.48,3.76c-11.19-4.17-11.19-4.17-17.33,6a1.47,1.47,0,0,1-.38.31c-3.18,2.45-2.1,4.93.69,9,1-4.18,2.08-7.06,2.33-10,.35-4.12,3-5.86,6.25-5.4,3.39.49,6.55,2.52,9.81,3.88l-.63,1.54-6-1.06,4.21,3.57-8.18-1.11c.87,2.05,1.55,3.54,2.15,5.05,1.53,3.82,4.54,5.41,8.24,4.29.74-.23.38-4.1.52-6.3q2.34,3.91,4.69,7.83c-4.6-.88-7.08,1.19-8.44,7.22Zm18.82,42.56-2.27-2.29c-3,2.39-6.12,4.62-8.84,7.28-.66.64-.48,3.3.26,3.92s3.38.76,4,0A108.94,108.94,0,0,0,1516.81,1529.56ZM1488.54,1510c-2.6,10.14-2.28,11.4,3.34,14C1496,1518.91,1495.35,1515.91,1488.54,1510Zm3.18,28.57c.39-6.77-2.65-9.61-10.16-9.82C1484.08,1538.14,1485.21,1539.27,1491.72,1538.59Zm46.67,9.79c6.18-.41,7.75-2.22,8-8.88C1538.91,1541.24,1537.81,1542.4,1538.39,1548.38Zm-79.51,0c.58-6.13-1.6-8.22-8.41-8.51C1451.27,1544.56,1452.47,1548.78,1458.88,1548.43Zm-21.67-2.08c3.23,5.94,4.62,6.53,8.89,4C1444.13,1545.9,1443.68,1545.68,1437.21,1546.35Zm113.58,4.43c5.38,2.54,7.38-.65,9.54-4.37C1556,1545.49,1552.55,1545.68,1550.79,1550.78Z" transform="translate(-1388 -1387)"/><path class="cls-1" d="M1480.7,1551.13h-7.34c2.35-7.3,5.81-9.32,11.84-6.54l-2.33,5.67Z" transform="translate(-1388 -1387)"/><path d="M1498.57,1524.53c3.53,4.7,3.55,8.59.06,13.9C1495.07,1533.18,1495.05,1529.65,1498.57,1524.53Z" transform="translate(-1388 -1387)"/><path class="cls-1" d="M1527.84,1538.31l8.16,2-.22,2.21-8.79.47-1-1c0-1,0-2,.08-3.06Z" transform="translate(-1388 -1387)"/><path class="cls-1" d="M1501,1468.12l2.94-6.37,1.59.47c.28,1.17.56,2.34.93,3.86,5-2.17,10.07-4,14.6.61,2.73,2.79,4.18,10.58,2.31,14.34-1.55-3.18-3.47-5.7-4-8.49-1.19-6.31-4-8.18-9.77-5.34a13.17,13.17,0,0,0-5,4.74l5.77-1.31-3.52,3.69-2.53,2.56L1500,1482l8.12,6.41-.75,1.59-6.63-.81c-.39,1.93-.8,4-1.36,6.83-3.74-3.27-2.49-6.15-1.39-9v-3q-2.36-3.91-4.69-7.83l-2.73-1.93-4.21-3.57,6,1.06.63-1.54c-3.26-1.36-6.42-3.39-9.81-3.88-3.22-.46-5.9,1.28-6.25,5.4-.25,3-1.32,5.83-2.33,10-2.79-4-3.87-6.52-.69-9a1.47,1.47,0,0,0,.38-.31c6.14-10.22,6.14-10.22,17.33-6l2.08,2.1,4.59,7.67c.47-2.89,6.86-3.84,2.65-8.17Z" transform="translate(-1388 -1387)"/><path class="cls-1" d="M1490.58,1474.23l2.73,1.93c-.14,2.2.22,6.07-.52,6.3-3.7,1.12-6.71-.47-8.24-4.29-.6-1.51-1.28-3-2.15-5.05Z" transform="translate(-1388 -1387)"/><path class="cls-1" d="M1504.27,1476.88l2.53-2.56,8.46-1.4c-1.55,3-2.25,5.92-4.08,7.48s-4.68,1.55-7.09,2.24Z" transform="translate(-1388 -1387)"/><path class="cls-1" d="M1516.81,1529.56a108.94,108.94,0,0,1-6.82,9c-.65.71-3.2.65-4,0s-.92-3.28-.26-3.92c2.72-2.66,5.86-4.89,8.84-7.28Z" transform="translate(-1388 -1387)"/><path class="cls-1" d="M1488.54,1510c6.81,5.89,7.47,8.89,3.34,14C1486.26,1521.42,1485.94,1520.16,1488.54,1510Z" transform="translate(-1388 -1387)"/><path class="cls-1" d="M1491.72,1538.59c-6.51.68-7.64-.45-10.16-9.82C1489.07,1529,1492.11,1531.82,1491.72,1538.59Z" transform="translate(-1388 -1387)"/><path class="cls-1" d="M1504.05,1514c1.42-1.27,2.83-2.55,4.27-3.85,3.59,7.9,3,10.91-2.94,14-3.49-3.08-2.75-6.65-1.16-10.33Z" transform="translate(-1388 -1387)"/><path class="cls-1" d="M1527.84,1538.31l-1.75.66-4.83-1.54c1-2,1.5-4.54,3.06-5.78,1.79-1.43,4.52-1.68,8.48-3Z" transform="translate(-1388 -1387)"/><path class="cls-1" d="M1471.15,1539.27l-6.15-8.87,1-1.12c2.16.61,4.76.67,6.36,2s2.42,3.9,3.58,5.93l-5,1.92Z" transform="translate(-1388 -1387)"/><path class="cls-1" d="M1538.39,1548.38c-.58-6,.52-7.14,8-8.88C1546.14,1546.16,1544.57,1548,1538.39,1548.38Z" transform="translate(-1388 -1387)"/><path class="cls-1" d="M1458.88,1548.43c-6.41.35-7.61-3.87-8.41-8.51C1457.28,1540.21,1459.46,1542.3,1458.88,1548.43Z" transform="translate(-1388 -1387)"/><path class="cls-1" d="M1468.88,1544.17l-7.93-2.37c3.35-3.21,6.36-4.67,10.2-2.53l-.19-.17-2.22,5.22Z" transform="translate(-1388 -1387)"/><path class="cls-1" d="M1437.21,1546.35c6.47-.67,6.92-.45,8.89,4C1441.83,1552.88,1440.44,1552.29,1437.21,1546.35Z" transform="translate(-1388 -1387)"/><path class="cls-1" d="M1550.79,1550.78c1.76-5.1,5.2-5.29,9.54-4.37C1558.17,1550.13,1556.17,1553.32,1550.79,1550.78Z" transform="translate(-1388 -1387)"/><path class="cls-1" d="M1498,1484v3l-8.43,4.21C1490.92,1485.18,1493.4,1483.11,1498,1484Z" transform="translate(-1388 -1387)"/><path class="cls-1" d="M1493.67,1468.48l-2.08-2.1-.48-3.76,1-.83a49.53,49.53,0,0,1,3.89,4.33A19,19,0,0,1,1493.67,1468.48Z" transform="translate(-1388 -1387)"/><path class="cls-1" d="M1500.91,1468l-1.64,5.39-1.59-.2v-7.87l1-.36,2.32,3.18Z" transform="translate(-1388 -1387)"/></svg>